<svg width="224" height="278" viewBox="0 0 224 278" fill="none" xmlns="http://www.w3.org/2000/svg">
<g clip-path="url(#clip0_9_106)">
<rect width="433" height="278" rx="18" fill="#4DA9FF"/>
<rect x="20.5" y="104.5" width="61" height="54.5304" rx="9.5" fill="url(#paint0_linear_9_106)" stroke="black"/>
<path d="M40.7565 104.539V107.774M40.7565 107.774L51.2695 117.209M40.7565 107.774H22.9651M51.2695 117.209V120.713H39.9478M51.2695 117.209L55.313 113.704M39.9478 120.713L38.8695 119.635H20.5391M39.9478 120.713C39.9478 125.139 39.9478 128.581 39.9478 132.035M39.9478 143.087H51.2695V146.861M39.9478 143.087L38.5999 144.165H20.5391M39.9478 143.087C39.9478 138.776 39.9478 135.399 39.9478 132.035M51.2695 146.861L40.7565 155.756M51.2695 146.861L61.7825 155.756M40.7565 155.756V159.261M40.7565 155.756C39.4625 155.756 28.626 155.756 22.9651 155.756M39.9478 132.035H35.0956M20.5391 132.035H25.3912M61.7825 104.539V107.774M61.7825 107.774H79.0347M61.7825 107.774L58.0086 111.548M61.7825 155.756V159.261M61.7825 155.756C63.0765 155.756 73.3738 155.756 79.0347 155.756M81.9999 144.165H63.9391L62.5912 143.087C62.5912 138.776 62.5912 135.399 62.5912 132.035M81.9999 119.635H63.6695L62.5912 120.713C62.5912 125.139 62.5912 128.581 62.5912 132.035M62.5912 132.035H66.9043M81.9999 132.035H77.4173" stroke="black"/>
<path fill-rule="evenodd" clip-rule="evenodd" d="M80.534 29.414H80.5186V38.1556C80.5186 39.2697 81.4218 40.1729 82.5359 40.1729C83.65 40.1729 84.5532 39.2697 84.5532 38.1556L84.5532 29.7502L84.5532 29.414H84.5474C84.5072 28.2483 84.2581 27.0983 83.811 26.019C83.321 24.836 82.6028 23.7612 81.6974 22.8558C80.792 21.9504 79.7172 21.2322 78.5342 20.7422C77.3513 20.2522 76.0834 20 74.803 20C73.5226 20 72.2547 20.2522 71.0717 20.7422C69.8888 21.2322 68.8139 21.9504 67.9085 22.8558C67.0031 23.7612 66.2849 24.836 65.7949 26.019C65.3479 27.0983 65.0988 28.2483 65.0585 29.414H65.0527V29.7502V38.1556C65.0527 39.2697 65.9559 40.1729 67.07 40.1729C68.1842 40.1729 69.0873 39.2697 69.0873 38.1556V29.414H69.0719C69.1094 28.7751 69.2535 28.1461 69.4991 27.5533C69.7876 26.8568 70.2104 26.2239 70.7435 25.6908C71.2766 25.1577 71.9095 24.7348 72.606 24.4463C73.3025 24.1578 74.0491 24.0093 74.803 24.0093C75.5569 24.0093 76.3034 24.1578 76.9999 24.4463C77.6964 24.7348 78.3293 25.1577 78.8624 25.6908C79.3955 26.2239 79.8184 26.8568 80.1069 27.5533C80.3524 28.1461 80.4966 28.7751 80.534 29.414ZM40.1729 30.0864C40.1729 28.0915 39.5813 26.1414 38.473 24.4827C37.3647 22.824 35.7894 21.5312 33.9464 20.7678C32.1033 20.0044 30.0753 19.8046 28.1187 20.1938C26.1621 20.583 24.3649 21.5436 22.9543 22.9543C21.5436 24.3649 20.583 26.1621 20.1938 28.1187C19.8046 30.0753 20.0044 32.1033 20.7678 33.9464C21.5312 35.7894 22.824 37.3647 24.4827 38.473C26.1414 39.5813 28.0915 40.1729 30.0864 40.1729V36.1429C28.8886 36.1429 27.7177 35.7877 26.7217 35.1222C25.7257 34.4567 24.9494 33.5108 24.4911 32.4041C24.0327 31.2975 23.9127 30.0797 24.1464 28.9049C24.3801 27.7301 24.9569 26.6509 25.8039 25.8039C26.6509 24.9569 27.7301 24.3801 28.9049 24.1464C30.0797 23.9127 31.2975 24.0327 32.4041 24.4911C33.5108 24.9495 34.4567 25.7257 35.1222 26.7217C35.7877 27.7177 36.1429 28.8886 36.1429 30.0864L36.1383 30.0864V31.4313C36.1383 32.5454 37.0415 33.4486 38.1556 33.4486C39.2697 33.4486 40.1729 32.5454 40.1729 31.4313L40.1729 30.0864ZM43.535 30.4227L43.535 30.4313V30.7589H43.5408C43.581 31.9246 43.8301 33.0746 44.2772 34.1539C44.7672 35.3369 45.4854 36.4117 46.3908 37.3171C47.2962 38.2225 48.371 38.9407 49.554 39.4307C50.7369 39.9207 52.0048 40.1729 53.2852 40.1729C54.5657 40.1729 55.8335 39.9207 57.0165 39.4307C58.1994 38.9407 59.2743 38.2225 60.1797 37.3171C61.0851 36.4117 61.8033 35.3369 62.2933 34.1539C62.7403 33.0746 62.9894 31.9246 63.0297 30.7589H63.0355L63.0355 30.4227L63.0355 22.0173C63.0355 20.9032 62.1323 20 61.0182 20C59.9041 20 59.0009 20.9032 59.0009 22.0173V30.7589H59.0163C58.9788 31.3978 58.8347 32.0268 58.5892 32.6196C58.3006 33.3161 57.8778 33.949 57.3447 34.4821C56.8116 35.0152 56.1787 35.4381 55.4822 35.7266C54.7857 36.0151 54.0392 36.1636 53.2852 36.1636C52.5313 36.1636 51.7848 36.0151 51.0883 35.7266C50.3918 35.4381 49.7589 35.0152 49.2258 34.4821C48.6927 33.949 48.2698 33.3161 47.9813 32.6196C47.7358 32.0268 47.5917 31.3978 47.5542 30.7589H47.5696V22.0173C47.5696 20.9032 46.6664 20 45.5523 20C44.4382 20 43.535 20.9032 43.535 22.0173L43.535 30.4227ZM106.065 29.414C106.025 28.2483 105.776 27.0983 105.329 26.019C104.839 24.836 104.121 23.7612 103.215 22.8558C102.31 21.9504 101.235 21.2322 100.052 20.7422C98.869 20.2522 97.6011 20 96.3207 20C95.0403 20 93.7724 20.2522 92.5895 20.7422C91.4065 21.2322 90.3317 21.9504 89.4263 22.8558C88.5209 23.7612 87.8027 24.836 87.3127 26.019C86.8656 27.0983 86.6165 28.2483 86.5763 29.414H86.5705V29.7502V38.1556C86.5705 39.2697 87.4737 40.1729 88.5878 40.1729C89.7019 40.1729 90.6051 39.2697 90.6051 38.1556V29.414H90.5897C90.6271 28.7751 90.7713 28.1461 91.0168 27.5533C91.3053 26.8568 91.7282 26.2239 92.2613 25.6908C92.7944 25.1577 93.4272 24.7348 94.1238 24.4463C94.8203 24.1578 95.5668 24.0093 96.3207 24.0093C97.0746 24.0093 97.8211 24.1578 98.5177 24.4463C99.2142 24.7348 99.8471 25.1577 100.38 25.6908C100.913 26.2239 101.336 26.8568 101.625 27.5533C101.87 28.1461 102.014 28.7751 102.052 29.414H95.9845C94.8704 29.414 93.9672 30.3172 93.9672 31.4313C93.9672 32.0297 94.2278 32.5673 94.6417 32.9368C94.6672 32.9654 94.6937 32.9934 94.7212 33.0209L101.637 39.9369C102.425 40.7247 103.702 40.7247 104.49 39.9369C105.278 39.1491 105.278 37.8718 104.49 37.084L100.855 33.4486H102.036C104.151 33.4486 105.886 31.8211 106.057 29.7502H106.071C106.071 29.6822 106.07 29.6142 106.069 29.5462C106.07 29.5023 106.071 29.4583 106.071 29.414H106.065ZM111.443 21.8495C111.358 20.8139 110.491 20 109.433 20C109.361 20 109.289 20.0038 109.219 20.0112C108.253 20.0154 107.411 20.7206 107.441 21.6944C107.425 21.7995 107.416 21.9074 107.416 22.0173V38.1556C107.416 39.2697 108.319 40.1729 109.433 40.1729C110.547 40.1729 111.45 39.2697 111.45 38.1556V28.9079C111.981 29.2915 112.549 29.6218 113.149 29.893C113.487 30.0456 113.832 30.1785 114.183 30.2913C114.196 30.3047 114.209 30.318 114.222 30.3312L123.693 39.803C124.481 40.5908 125.759 40.5908 126.546 39.803C127.334 39.0152 127.334 37.7379 126.546 36.9501L119.949 30.3531C120.368 30.2285 120.779 30.0755 121.179 29.8948C122.441 29.325 123.567 28.493 124.482 27.4542C125.397 26.4153 126.081 25.1935 126.487 23.8699C126.696 23.1875 126.83 22.4862 126.886 21.7786C126.973 20.6749 125.948 19.8913 124.85 20.031C123.751 20.1708 123.01 21.1964 122.765 22.2762C122.733 22.4164 122.696 22.5555 122.654 22.6934C122.415 23.4727 122.012 24.1921 121.474 24.8038C120.935 25.4154 120.272 25.9053 119.529 26.2408C118.786 26.5763 117.98 26.7497 117.165 26.7496C116.349 26.7494 115.544 26.5756 114.801 26.2397C114.058 25.9039 113.395 25.4137 112.857 24.8018C112.318 24.1898 111.916 23.4702 111.677 22.6908C111.635 22.553 111.598 22.4138 111.566 22.2736C111.534 22.1307 111.493 21.9886 111.443 21.8495ZM30.7589 36.1383H42.1902C43.3043 36.1383 44.2074 37.0415 44.2074 38.1556C44.2074 39.2697 43.3043 40.1729 42.1902 40.1729H30.7589V36.1383ZM79.8462 30.0864V34.121H69.7598V30.0864H79.8462Z" fill="white"/>
<path d="M69.4275 236.858C67.8449 236.282 66.1739 235.992 64.4911 236C59.0575 236 55.2176 238.765 55.1943 242.722C55.1496 245.63 57.9164 247.269 60.0074 248.25C62.1558 249.253 62.874 249.878 62.8634 250.768C62.8527 252.14 61.1464 252.752 59.576 252.752C57.3936 252.752 56.21 252.453 54.3846 251.682L53.7068 251.359L52.9333 255.93C54.2614 256.476 56.6414 256.955 59.0979 257C64.8864 257 68.6604 254.259 68.7029 250.032C68.7475 247.715 67.2664 245.955 64.1107 244.505C62.2067 243.569 61.0146 242.932 61.0146 241.973C61.0146 241.125 62.0325 240.235 64.1575 240.235C65.5677 240.2 66.9697 240.461 68.2736 241.004L68.7943 241.237L69.5571 236.835L69.4275 236.858ZM83.5524 236.379H79.3024C77.9743 236.379 76.9883 236.736 76.4017 238.063L68.2332 256.709H74.0111L75.1756 253.655L82.2243 253.666C82.4006 254.379 82.8979 256.707 82.8979 256.707H88L83.5524 236.379ZM47.37 236.212H52.8716L49.4291 256.551H43.9275L47.37 236.201V236.212ZM33.3811 247.413L33.9442 250.244L39.3332 236.379H45.1664L36.4879 256.675H30.6803L25.9202 239.488C25.8838 239.346 25.8188 239.212 25.7293 239.095C25.6398 238.979 25.5276 238.882 25.3996 238.81C23.6898 237.914 21.876 237.237 20 236.792L20.0659 236.366H28.942C30.1384 236.411 31.1116 236.792 31.4431 238.085L33.3811 247.424V247.413ZM76.7439 249.497L78.9475 243.803C78.9135 243.856 79.4001 242.632 79.6764 241.862L80.0525 243.61L81.3275 249.484H76.7439V249.497Z" fill="#8AC7FF"/>
<path fill-rule="evenodd" clip-rule="evenodd" d="M413.996 138C413.801 116 407.187 94.5261 394.956 76.2206C382.54 57.6379 364.891 43.1544 344.243 34.6017C323.595 26.049 300.875 23.8112 278.955 28.1713C257.035 32.5314 236.9 43.2937 221.097 59.097C205.294 74.9003 194.531 95.035 190.171 116.955C185.811 138.875 188.049 161.595 196.602 182.243C205.154 202.891 219.638 220.54 238.221 232.956C256.803 245.373 278.651 252 301 252V202.989C288.344 202.989 275.973 199.236 265.45 192.205C254.927 185.174 246.725 175.18 241.882 163.488C237.039 151.795 235.771 138.929 238.24 126.516C240.709 114.104 246.804 102.702 255.753 93.7529C264.702 84.8038 276.104 78.7095 288.516 76.2404C300.929 73.7714 313.795 75.0386 325.488 79.8818C337.18 84.725 347.174 92.9266 354.205 103.45C361.236 113.973 364.989 126.344 364.989 139H365V151.5C365 165.031 375.969 176 389.5 176C403.031 176 414 165.031 414 151.5V139V138H413.996ZM318 203H445.5C459.031 203 470 213.969 470 227.5C470 241.031 459.031 252 445.5 252H318V203Z" fill="url(#paint1_linear_9_106)"/>
</g>
<defs>
<linearGradient id="paint0_linear_9_106" x1="22.6957" y1="107.774" x2="79.0348" y2="156.835" gradientUnits="userSpaceOnUse">
<stop stop-color="#FFFAE0"/>
<stop offset="0.958333" stop-color="#B7A178"/>
</linearGradient>
<linearGradient id="paint1_linear_9_106" x1="178" y1="60.5" x2="433" y2="252" gradientUnits="userSpaceOnUse">
<stop stop-color="#41E1FF"/>
<stop offset="1" stop-color="#48B8FE"/>
</linearGradient>
<clipPath id="clip0_9_106">
<rect width="433" height="278" rx="18" fill="white"/>
</clipPath>
</defs>
</svg>
