<svg width="27" height="12" viewBox="0 0 27 12" fill="none" xmlns="http://www.w3.org/2000/svg">
<path d="M22.0106 2.05955L26 4.80425L22.0106 7.20587V4.65086V2.05955Z" fill="black"/>
<path d="M1 6.17659C1 6.17659 2.74989 7.26356 4.125 6.17659C5.86111 4.80427 5.21147 1.52131 7.94444 1.03032C11.7639 0.344147 10.0278 11.5377 14.5417 10.9798C17.3194 10.6367 16.9722 6.86278 18.0139 5.49044C19.0556 4.11809 21.0645 4.66279 22.0106 4.65086M22.0106 4.65086C22.0106 4.00343 22.0106 2.88157 22.0106 2.05955L26 4.80425L22.0106 7.20587C22.0106 6.01813 22.0106 5.58632 22.0106 4.65086Z" stroke="black"/>
</svg>
