<svg width="48" height="48" viewBox="0 0 48 48" fill="none" xmlns="http://www.w3.org/2000/svg">
<g clip-path="url(#clip0_204_69)">
<path fill-rule="evenodd" clip-rule="evenodd" d="M42.9992 23.8231C42.9648 19.9292 41.7942 16.1285 39.6294 12.8886C37.4318 9.59962 34.3082 7.03617 30.6537 5.52242C26.9992 4.00867 22.9778 3.6126 19.0982 4.3843C15.2186 5.15601 11.6549 7.06082 8.85787 9.85787C6.06082 12.6549 4.15601 16.2186 3.3843 20.0982C2.6126 23.9778 3.00867 27.9992 4.52242 31.6537C6.03617 35.3082 8.59962 38.4318 11.8886 40.6294C15.1776 42.827 19.0444 44 23 44V35.3255C20.76 35.3255 18.5704 34.6613 16.7079 33.4168C14.8454 32.1724 13.3938 30.4036 12.5366 28.3341C11.6794 26.2646 11.4551 23.9874 11.8921 21.7905C12.3291 19.5936 13.4078 17.5756 14.9917 15.9917C16.5756 14.4078 18.5936 13.3291 20.7905 12.8921C22.9874 12.4551 25.2646 12.6794 27.3341 13.5366C29.4036 14.3938 31.1724 15.8454 32.4168 17.7079C33.6613 19.5704 34.3255 21.76 34.3255 24H34.3274V26.2125C34.3274 28.6073 36.2689 30.5487 38.6637 30.5487C41.0586 30.5487 43 28.6073 43 26.2125V23.8231H42.9992ZM26.009 35.3274H48.5753C50.9702 35.3274 52.9116 37.2688 52.9116 39.6637C52.9116 42.0586 50.9702 44 48.5753 44H26.009V35.3274Z" fill="url(#paint0_linear_204_69)"/>
</g>
<defs>
<linearGradient id="paint0_linear_204_69" x1="6.53983" y1="9.39823" x2="44.4159" y2="44.0001" gradientUnits="userSpaceOnUse">
<stop stop-color="#3D7EFD"/>
<stop offset="0.482454" stop-color="#F57EFF"/>
<stop offset="0.651042" stop-color="#AD00FF"/>
</linearGradient>
<clipPath id="clip0_204_69">
<rect width="48" height="48" fill="white"/>
</clipPath>
</defs>
</svg>
