<svg width="105" height="20" viewBox="0 0 105 20" fill="none" xmlns="http://www.w3.org/2000/svg">
<path fill-rule="evenodd" clip-rule="evenodd" d="M58.977 9.17201H58.9626V17.6888C58.9626 18.7743 59.8426 19.6542 60.928 19.6542C62.0135 19.6542 62.8934 18.7743 62.8934 17.6888V9.17201H62.8872C62.848 8.03624 62.6053 6.91577 62.1697 5.8642C61.6923 4.71166 60.9926 3.66445 60.1105 2.78234C59.2284 1.90023 58.1812 1.2005 57.0286 0.723106C55.8761 0.245712 54.6408 0 53.3933 0C52.1459 0 50.9106 0.245712 49.7581 0.723106C48.6055 1.2005 47.5583 1.90023 46.6762 2.78234C45.7941 3.66445 45.0944 4.71166 44.617 5.8642C44.1814 6.91578 43.9387 8.03624 43.8995 9.17201H43.8941V9.42528L43.8939 9.4995H43.8941V17.6888C43.8941 18.7743 44.7741 19.6542 45.8596 19.6542C46.945 19.6542 47.825 18.7743 47.825 17.6888V9.17201H47.8097C47.8462 8.54947 47.9866 7.93661 48.2258 7.35904C48.5069 6.68043 48.9189 6.06383 49.4383 5.54445C49.9577 5.02506 50.5743 4.61306 51.2529 4.33197C51.9315 4.05088 52.6588 3.90621 53.3933 3.90621C54.1279 3.90621 54.8552 4.05088 55.5338 4.33197C56.2124 4.61306 56.829 5.02506 57.3484 5.54445C57.8678 6.06383 58.2798 6.68043 58.5609 7.35904C58.8001 7.9366 58.9405 8.54947 58.977 9.17201ZM19.6541 9.82707C19.6541 7.88346 19.0778 5.9835 17.998 4.36744C16.9182 2.75139 15.3834 1.49183 13.5877 0.748045C11.7921 0.0042584 9.81616 -0.19035 7.9099 0.188829C6.00364 0.568008 4.25262 1.50395 2.87828 2.87828C1.50394 4.25262 0.568008 6.00364 0.188829 7.9099C-0.190351 9.81616 0.00425792 11.7921 0.748045 13.5877C1.49183 15.3834 2.75139 16.9182 4.36744 17.998C5.9835 19.0778 7.88346 19.6541 9.82707 19.6541V15.7277C8.66002 15.7277 7.51919 15.3817 6.54883 14.7333C5.57847 14.0849 4.82217 13.1634 4.37556 12.0852C3.92895 11.0069 3.8121 9.82052 4.03978 8.6759C4.26746 7.53129 4.82944 6.47989 5.65467 5.65467C6.47989 4.82944 7.53129 4.26746 8.6759 4.03978C9.82052 3.8121 11.0069 3.92895 12.0852 4.37556C13.1634 4.82217 14.0849 5.57847 14.7333 6.54883C15.3816 7.51915 15.7277 8.65992 15.7277 9.82691H15.723V11.1372C15.723 12.2226 16.6029 13.1026 17.6884 13.1026C18.7739 13.1026 19.6538 12.2226 19.6538 11.1372V9.82707H19.6541ZM26.8606 10.4822H26.8458C26.8823 11.1047 27.0227 11.7175 27.2619 12.295C27.543 12.9736 27.955 13.5902 28.4744 14.1096C28.9938 14.629 29.6104 15.041 30.289 15.3221C30.9676 15.6031 31.6949 15.7478 32.4295 15.7478C33.164 15.7478 33.8913 15.6031 34.5699 15.3221C35.2485 15.041 35.8651 14.629 36.3845 14.1096C36.9039 13.5902 37.3159 12.9736 37.597 12.295C37.8362 11.7175 37.9766 11.1047 38.0131 10.4822H37.9983V1.96545C37.9983 0.879983 38.8782 4.00543e-05 39.9637 4.00543e-05C41.0492 4.00543e-05 41.9291 0.879985 41.9291 1.96545V10.4822H41.9233C41.8841 11.6179 41.6414 12.7383 41.2059 13.7898C40.7285 14.9424 40.0287 15.9896 39.1466 16.8717C38.2645 17.7538 37.2173 18.4535 36.0648 18.9309C34.9122 19.4083 33.677 19.654 32.4295 19.654C31.182 19.654 29.9467 19.4083 28.7942 18.9309C27.6416 18.4535 26.5944 17.7538 25.7123 16.8717C24.8302 15.9896 24.1305 14.9424 23.6531 13.7898C23.2175 12.7383 22.9748 11.6179 22.9356 10.4822H22.9298V1.96545C22.9298 0.879983 23.8098 4.00543e-05 24.8952 4.00543e-05C25.9807 4.00543e-05 26.8606 0.879985 26.8606 1.96545V10.4822ZM83.8517 9.17201C83.8125 8.03624 83.5698 6.91577 83.1342 5.8642C82.6568 4.71166 81.9571 3.66445 81.075 2.78234C80.1929 1.90023 79.1457 1.2005 77.9931 0.723106C76.8406 0.245712 75.6053 0 74.3578 0C73.1103 0 71.8751 0.245712 70.7225 0.723106C69.57 1.2005 68.5228 1.90023 67.6407 2.78234C66.7586 3.66445 66.0588 4.71166 65.5814 5.8642C65.1459 6.91578 64.9032 8.03624 64.864 9.17201H64.8586V9.42528L64.8583 9.4995H64.8586V17.6888C64.8586 18.7743 65.7386 19.6542 66.824 19.6542C67.9095 19.6542 68.7895 18.7743 68.7895 17.6888V9.17201H68.7741C68.8107 8.54947 68.9511 7.93661 69.1903 7.35904C69.4714 6.68043 69.8834 6.06383 70.4028 5.54445C70.9222 5.02506 71.5388 4.61306 72.2174 4.33197C72.896 4.05088 73.6233 3.90621 74.3578 3.90621C75.0924 3.90621 75.8197 4.05088 76.4983 4.33197C77.1769 4.61306 77.7935 5.02506 78.3129 5.54445C78.8323 6.06383 79.2443 6.68043 79.5254 7.35904C79.7646 7.9366 79.905 8.54947 79.9415 9.17201H74.0304C72.945 9.17201 72.065 10.052 72.065 11.1374C72.065 11.7205 72.3189 12.2443 72.7222 12.6042C72.7471 12.6321 72.7729 12.6594 72.7997 12.6862L79.5378 19.4244C80.3054 20.1919 81.5498 20.1919 82.3173 19.4243C83.0849 18.6568 83.0849 17.4124 82.3173 16.6448L78.7753 13.1028H79.9267C81.9873 13.1028 83.6776 11.5172 83.844 9.49949H83.8573C83.8573 9.43423 83.8567 9.369 83.8553 9.30382C83.8568 9.26006 83.8575 9.21612 83.8575 9.17201H83.8517ZM89.0922 1.80243C89.0093 0.793207 88.164 0 87.1334 0C87.0629 0 86.9932 0.00371447 86.9246 0.0109585C85.9828 0.0152031 85.1633 0.702507 85.1929 1.65147C85.1765 1.7537 85.168 1.85855 85.168 1.96541V17.6887C85.168 18.7742 86.0479 19.6541 87.1334 19.6541C88.2189 19.6541 89.0988 18.7742 89.0988 17.6887V8.67897C89.6153 9.05267 90.1696 9.37448 90.7537 9.6386C91.0826 9.7873 91.419 9.91681 91.7611 10.0267C91.7734 10.0398 91.786 10.0527 91.7988 10.0655L101.027 19.2937C101.795 20.0613 103.039 20.0613 103.807 19.2937C104.574 18.5262 104.574 17.2817 103.807 16.5142L97.3792 10.0869C97.787 9.96545 98.1872 9.81642 98.5769 9.64043C99.8063 9.08528 100.903 8.27467 101.795 7.26254C102.687 6.25041 103.353 5.05998 103.749 3.77045C103.953 3.10562 104.083 2.4223 104.137 1.73289C104.222 0.657593 103.223 -0.10587 102.153 0.0302748C101.083 0.16642 100.361 1.16571 100.123 2.21775C100.092 2.3543 100.056 2.48986 100.014 2.62414C99.7813 3.38341 99.3892 4.08434 98.8642 4.68028C98.3391 5.27621 97.6932 5.7535 96.9693 6.08038C96.2455 6.40725 95.4603 6.57622 94.666 6.57603C93.8718 6.57584 93.0867 6.40651 92.363 6.0793C91.6393 5.75208 90.9936 5.2745 90.4688 4.67831C89.9441 4.08213 89.5523 3.38102 89.3196 2.62164C89.2784 2.48734 89.2424 2.35176 89.2115 2.2152C89.1801 2.07607 89.1402 1.93785 89.0922 1.80243ZM10.4822 15.7231H21.6196C22.705 15.7231 23.585 16.6031 23.585 17.6886C23.585 18.774 22.705 19.654 21.6196 19.654H10.4822V15.7231ZM48.4801 9.82691H58.3071V13.7577H48.4801V9.82691Z" fill="black"/>
</svg>
