<svg width="500" height="100" viewBox="0 0 500 100" fill="none" xmlns="http://www.w3.org/2000/svg">
<rect width="500" height="100" fill="white"/>
<path d="M41.6046 50.3385C41.6046 51.1736 41.3353 51.8676 40.7967 52.4206C40.258 52.9735 39.5979 53.25 38.8164 53.25C38.2038 53.25 37.7127 53.0694 37.3431 52.7083C36.9735 52.3472 36.7886 51.8507 36.7886 51.2188C36.7886 50.3837 37.0527 49.6784 37.5807 49.1029C38.1088 48.5273 38.7636 48.2396 39.5451 48.2396C40.1366 48.2396 40.6277 48.4258 41.0184 48.7982C41.4092 49.1706 41.6046 49.684 41.6046 50.3385ZM66.4766 45.2943C66.4766 46.2422 66.2442 46.8854 65.7795 47.224C65.3148 47.5625 64.6178 47.7318 63.6884 47.7318L62.6745 47.7656L63.2131 44.1432C63.2554 43.895 63.3926 43.7708 63.625 43.7708H64.1953C64.66 43.7708 65.0297 43.7934 65.3043 43.8385C65.5788 43.8837 65.8429 44.0247 66.0964 44.2617C66.3498 44.4987 66.4766 44.8429 66.4766 45.2943ZM77.5977 50.3385C77.5977 51.151 77.3283 51.8394 76.7897 52.4036C76.2511 52.9679 75.6016 53.25 74.8411 53.25C74.2286 53.25 73.7322 53.0694 73.352 52.7083C72.9718 52.3472 72.7817 51.8507 72.7817 51.2188C72.7817 50.3837 73.0457 49.6784 73.5738 49.1029C74.1018 48.5273 74.7567 48.2396 75.5382 48.2396C76.1296 48.2396 76.6207 48.4258 77.0115 48.7982C77.4023 49.1706 77.5977 49.684 77.5977 50.3385ZM34.2539 44.5495C34.2539 43.2179 33.8473 42.253 33.0341 41.6549C32.2208 41.0569 31.1594 40.7578 29.8498 40.7578H24.7804C24.3791 40.7578 24.1573 40.9722 24.115 41.401L22.0556 55.2135C22.0344 55.349 22.0661 55.4731 22.1506 55.5859C22.2351 55.6988 22.3407 55.7552 22.4674 55.7552H24.8754C25.2979 55.7552 25.5302 55.5408 25.5725 55.112L26.1428 51.388C26.1639 51.2075 26.2378 51.0608 26.3646 50.9479C26.4913 50.8351 26.6497 50.7617 26.8398 50.7279C27.0299 50.694 27.2095 50.6771 27.3785 50.6771C27.5475 50.6771 27.7481 50.6884 27.9805 50.7109C28.2128 50.7335 28.3607 50.7448 28.424 50.7448C30.2406 50.7448 31.6664 50.1975 32.7014 49.1029C33.7364 48.0082 34.2539 46.4905 34.2539 44.5495ZM44.0443 55.112L45.3433 46.276C45.3644 46.1406 45.3328 46.0165 45.2483 45.9036C45.1638 45.7908 45.0582 45.7344 44.9314 45.7344H42.5234C42.2277 45.7344 42.0482 46.1068 41.9848 46.8516C41.4145 45.9488 40.4112 45.4974 38.9748 45.4974C37.454 45.4974 36.1602 46.1068 35.0935 47.3255C34.0268 48.5443 33.4935 49.9774 33.4935 51.625C33.4935 52.9566 33.8579 54.0174 34.5866 54.8073C35.3153 55.5972 36.2922 55.9922 37.5174 55.9922C38.1088 55.9922 38.7214 55.8568 39.355 55.5859C39.9887 55.3151 40.4957 54.954 40.8759 54.5026C40.7914 54.7734 40.7491 55.0104 40.7491 55.2135C40.7491 55.5747 40.8864 55.7552 41.161 55.7552H43.3472C43.7486 55.7552 43.9809 55.5408 44.0443 55.112ZM58.207 46.2083C58.207 46.0955 58.1648 45.9883 58.0803 45.8867C57.9958 45.7852 57.9008 45.7344 57.7951 45.7344H55.3555C55.1231 45.7344 54.933 45.8472 54.7852 46.0729L51.4266 51.3542L50.0326 46.276C49.9269 45.9149 49.6946 45.7344 49.3355 45.7344H46.9592C46.8536 45.7344 46.7585 45.7852 46.674 45.8867C46.5896 45.9883 46.5473 46.0955 46.5473 46.2083C46.5473 46.2535 46.7533 46.9193 47.1651 48.2057C47.577 49.4922 48.0206 50.8802 48.4959 52.3698C48.9711 53.8594 49.2193 54.6493 49.2404 54.7396C47.5084 57.2674 46.6424 58.6215 46.6424 58.8021C46.6424 59.0955 46.7797 59.2422 47.0543 59.2422H49.4939C49.7263 59.2422 49.9164 59.1293 50.0642 58.9036L58.1437 46.4453C58.1859 46.4002 58.207 46.3212 58.207 46.2083ZM70.247 44.5495C70.247 43.2179 69.8403 42.253 69.0271 41.6549C68.2139 41.0569 67.1525 40.7578 65.8429 40.7578H60.8051C60.3827 40.7578 60.1503 40.9722 60.1081 41.401L58.0486 55.2135C58.0275 55.349 58.0592 55.4731 58.1437 55.5859C58.2282 55.6988 58.3338 55.7552 58.4605 55.7552H61.0586C61.3121 55.7552 61.481 55.6085 61.5655 55.3151L62.1358 51.388C62.157 51.2075 62.2309 51.0608 62.3576 50.9479C62.4844 50.8351 62.6428 50.7617 62.8329 50.7279C63.023 50.694 63.2025 50.6771 63.3715 50.6771C63.5405 50.6771 63.7412 50.6884 63.9735 50.7109C64.2059 50.7335 64.3537 50.7448 64.4171 50.7448C66.2336 50.7448 67.6594 50.1975 68.6944 49.1029C69.7295 48.0082 70.247 46.4905 70.247 44.5495ZM80.0373 55.112L81.3364 46.276C81.3575 46.1406 81.3258 46.0165 81.2413 45.9036C81.1568 45.7908 81.0512 45.7344 80.9245 45.7344H78.5165C78.2208 45.7344 78.0412 46.1068 77.9779 46.8516C77.4287 45.9488 76.4253 45.4974 74.9679 45.4974C73.447 45.4974 72.1533 46.1068 71.0866 47.3255C70.0199 48.5443 69.4865 49.9774 69.4865 51.625C69.4865 52.9566 69.8509 54.0174 70.5796 54.8073C71.3084 55.5972 72.2853 55.9922 73.5104 55.9922C74.123 55.9922 74.7461 55.8568 75.3798 55.5859C76.0135 55.3151 76.5098 54.954 76.8689 54.5026C76.8689 54.5252 76.8478 54.6267 76.8056 54.8073C76.7633 54.9878 76.7422 55.1233 76.7422 55.2135C76.7422 55.5747 76.8795 55.7552 77.1541 55.7552H79.3403C79.7416 55.7552 79.974 55.5408 80.0373 55.112ZM86.9444 41.2656V41.2318C86.9444 40.9158 86.8071 40.7578 86.5325 40.7578H84.1879C83.9556 40.7578 83.8183 40.8819 83.776 41.1302L81.7166 55.2135L81.6849 55.2813C81.6849 55.3941 81.7271 55.5013 81.8116 55.6029C81.8961 55.7044 82.0017 55.7552 82.1285 55.7552H84.2196C84.6209 55.7552 84.8427 55.5408 84.885 55.112L86.9444 41.2656ZM30.4201 45.8021C30.3145 46.592 30.0399 47.1111 29.5964 47.3594C29.1528 47.6076 28.5191 47.7318 27.6953 47.7318L26.6497 47.7656L27.1884 44.1432C27.2306 43.895 27.3679 43.7708 27.6003 43.7708H28.2023C29.0472 43.7708 29.6597 43.9006 30.0399 44.1602C30.4201 44.4197 30.5469 44.967 30.4201 45.8021ZM91 28.3333V71.6667C91 72.8403 90.5987 73.8559 89.796 74.7135C88.9933 75.5712 88.0428 76 86.9444 76H22.0556C20.9572 76 20.0067 75.5712 19.204 74.7135C18.4013 73.8559 18 72.8403 18 71.6667V28.3333C18 27.1597 18.4013 26.1441 19.204 25.2865C20.0067 24.4288 20.9572 24 22.0556 24H86.9444C88.0428 24 88.9933 24.4288 89.796 25.2865C90.5987 26.1441 91 27.1597 91 28.3333Z" fill="#004890"/>
<path d="M240 50.6676C240 43.8318 236.693 38.4379 230.373 38.4379C224.026 38.4379 220.187 43.832 220.187 50.6143C220.187 58.6516 224.72 62.7104 231.227 62.7104C234.4 62.7104 236.8 61.9894 238.613 60.9748V55.6342C236.8 56.5422 234.72 57.103 232.08 57.103C229.493 57.103 227.2 56.195 226.907 53.0442H239.947C239.947 52.6969 240 51.3084 240 50.6676ZM226.827 48.1309C226.827 45.1136 228.667 43.8585 230.347 43.8585C231.973 43.8585 233.707 45.1136 233.707 48.1309H226.827ZM209.894 38.4379C207.28 38.4379 205.6 39.6662 204.667 40.5208L204.32 38.8652H198.453V70L205.12 68.5849L205.147 61.0281C206.107 61.7224 207.52 62.7104 209.867 62.7104C214.64 62.7104 218.987 58.8652 218.987 50.4007C218.96 42.6569 214.56 38.4379 209.893 38.4379H209.894ZM208.293 56.8358C206.72 56.8358 205.786 56.2752 205.147 55.5809L205.12 45.6742C205.813 44.8999 206.773 44.366 208.293 44.366C210.72 44.366 212.4 47.0895 212.4 50.5875C212.4 54.1656 210.747 56.8358 208.293 56.8358V56.8358ZM189.28 36.8625L195.973 35.4206V30L189.28 31.4153V36.8623V36.8625ZM189.28 38.8919H195.973V62.2564H189.28V38.8919V38.8919ZM182.107 40.8678L181.68 38.8919H175.92V62.2564H182.587V46.422C184.16 44.366 186.827 44.7398 187.653 45.0334V38.8919C186.8 38.5714 183.68 37.9839 182.107 40.8678ZM168.773 33.0975L162.267 34.4859L162.24 55.8745C162.24 59.8267 165.2 62.737 169.147 62.737C171.333 62.737 172.933 62.3366 173.813 61.8559V56.4354C172.96 56.7825 168.747 58.0108 168.747 54.0588V44.5794H173.813V38.8919H168.747L168.773 33.0975V33.0975ZM150.747 45.6742C150.747 44.6329 151.6 44.2323 153.013 44.2323C155.04 44.2323 157.6 44.8466 159.627 45.9414V39.6662C157.413 38.7851 155.227 38.4379 153.013 38.4379C147.6 38.4379 144 41.2684 144 45.9949C144 53.3645 154.133 52.1897 154.133 55.3674C154.133 56.5955 153.067 56.9962 151.573 56.9962C149.36 56.9962 146.533 56.0882 144.293 54.8599V61.2151C146.773 62.2832 149.28 62.737 151.573 62.737C157.12 62.737 160.933 59.9869 160.933 55.2071C160.907 47.2498 150.747 48.6649 150.747 45.6742V45.6742Z" fill="#635BFF"/>
<path d="M322.511 47.271C322.461 51.3108 326.039 53.565 328.735 54.9054C331.504 56.2806 332.434 57.1625 332.423 58.3924C332.403 60.2744 330.214 61.1051 328.167 61.1374C324.594 61.1939 322.517 60.1531 320.865 59.3659L319.578 65.5116C321.235 66.2907 324.303 66.9702 327.484 67C334.952 67 339.838 63.238 339.865 57.4052C339.894 50.0026 329.831 49.5929 329.9 46.2842C329.924 45.2809 330.862 44.2102 332.917 43.938C333.935 43.8005 336.744 43.6953 339.928 45.1918L341.178 39.2457C339.466 38.6093 337.265 38 334.524 38C327.495 38 322.551 41.8132 322.511 47.271M353.188 38.5122C351.824 38.5122 350.675 39.3239 350.162 40.5696L339.495 66.5633H346.957L348.442 62.375H357.561L358.423 66.5633H365L359.26 38.5122H353.188M354.232 46.0898L356.386 56.6233H350.488L354.232 46.0898M313.464 38.5125L307.581 66.5629H314.693L320.572 38.5118H313.464M302.944 38.5118L295.542 57.6049L292.548 41.3708C292.197 39.5586 290.809 38.5122 289.269 38.5122H277.169L277 39.3267C279.484 39.8768 282.306 40.764 284.016 41.7132C285.062 42.2931 285.361 42.8 285.704 44.178L291.375 66.5633H298.89L310.411 38.5122H302.944" fill="url(#paint0_linear_183_38)"/>
<path d="M415.453 80.7167V76.9441C415.453 75.4976 414.565 74.5547 413.042 74.5547C412.28 74.5547 411.455 74.8062 410.884 75.6237C410.44 74.9319 409.805 74.5547 408.854 74.5547C408.219 74.5547 407.585 74.7432 407.077 75.4349V74.6804H405.744V80.7167H407.077V77.3841C407.077 76.3154 407.648 75.8121 408.536 75.8121C409.424 75.8121 409.869 76.3781 409.869 77.3841V80.7167H411.202V77.3841C411.202 76.3154 411.836 75.8121 412.661 75.8121C413.549 75.8121 413.993 76.3781 413.993 77.3841V80.7167H415.453V80.7167ZM435.188 74.6804H433.03V72.857H431.698V74.6804H430.492V75.8749H431.698V78.6418C431.698 80.0253 432.269 80.8424 433.792 80.8424C434.363 80.8424 434.997 80.654 435.442 80.4025L435.061 79.2705C434.68 79.522 434.236 79.585 433.919 79.585C433.284 79.585 433.03 79.2078 433.03 78.5788V75.8749H435.188V74.6804V74.6804ZM446.483 74.5544C445.722 74.5544 445.214 74.9319 444.897 75.4349V74.6804H443.564V80.7167H444.897V77.3213C444.897 76.3154 445.341 75.7494 446.166 75.7494C446.42 75.7494 446.737 75.8124 446.991 75.8751L447.371 74.6177C447.118 74.5547 446.737 74.5547 446.483 74.5547V74.5544ZM429.413 75.1834C428.779 74.7432 427.89 74.5547 426.938 74.5547C425.416 74.5547 424.401 75.3091 424.401 76.5039C424.401 77.5101 425.162 78.0758 426.494 78.2646L427.129 78.3276C427.827 78.453 428.208 78.6418 428.208 78.9563C428.208 79.3963 427.7 79.7108 426.812 79.7108C425.923 79.7108 425.225 79.3963 424.781 79.082L424.146 80.088C424.845 80.591 425.796 80.8424 426.748 80.8424C428.525 80.8424 429.54 80.0253 429.54 78.8933C429.54 77.8243 428.715 77.2583 427.446 77.0699L426.812 77.0068C426.24 76.9438 425.796 76.8184 425.796 76.4411C425.796 76.0009 426.24 75.7494 426.938 75.7494C427.7 75.7494 428.462 76.0636 428.842 76.2524L429.413 75.1834V75.1834ZM464.822 74.5547C464.06 74.5547 463.553 74.9319 463.235 75.4349V74.6804H461.903V80.7167H463.235V77.3213C463.235 76.3154 463.68 75.7494 464.504 75.7494C464.759 75.7494 465.076 75.8124 465.33 75.8751L465.71 74.6177C465.457 74.5547 465.076 74.5547 464.822 74.5547V74.5547ZM447.816 77.6986C447.816 79.522 449.085 80.8424 451.052 80.8424C451.94 80.8424 452.575 80.654 453.209 80.151L452.575 79.082C452.067 79.4593 451.56 79.6477 450.988 79.6477C449.91 79.6477 449.148 78.8933 449.148 77.6986C449.148 76.5669 449.91 75.8121 450.988 75.7494C451.56 75.7494 452.067 75.9379 452.575 76.3154L453.209 75.2464C452.575 74.7432 451.94 74.5547 451.052 74.5547C449.085 74.5547 447.816 75.8751 447.816 77.6986ZM460.126 77.6986V74.6804H458.794V75.4349C458.349 74.8692 457.715 74.5547 456.89 74.5547C455.177 74.5547 453.844 75.8751 453.844 77.6986C453.844 79.522 455.177 80.8424 456.89 80.8424C457.778 80.8424 458.413 80.5282 458.794 79.9622V80.7167H460.126V77.6986V77.6986ZM455.24 77.6986C455.24 76.6296 455.938 75.7494 457.08 75.7494C458.159 75.7494 458.921 76.5669 458.921 77.6986C458.921 78.7675 458.159 79.6477 457.08 79.6477C455.938 79.5847 455.24 78.7675 455.24 77.6986V77.6986ZM439.313 74.5547C437.536 74.5547 436.267 75.8121 436.267 77.6986C436.267 79.585 437.536 80.8424 439.376 80.8424C440.264 80.8424 441.153 80.591 441.851 80.0253L441.216 79.082C440.709 79.4593 440.074 79.7108 439.44 79.7108C438.615 79.7108 437.79 79.3335 437.599 78.2643H442.105V77.7616C442.168 75.8121 441.026 74.5547 439.312 74.5547H439.313ZM439.313 75.6864C440.137 75.6864 440.709 76.1896 440.835 77.1329H437.663C437.79 76.3154 438.361 75.6864 439.313 75.6864ZM472.373 77.6986V72.291H471.041V75.4349C470.596 74.8692 469.962 74.5547 469.137 74.5547C467.424 74.5547 466.091 75.8751 466.091 77.6986C466.091 79.522 467.424 80.8424 469.137 80.8424C470.026 80.8424 470.66 80.5282 471.041 79.9622V80.7167H472.373V77.6986V77.6986ZM467.487 77.6986C467.487 76.6296 468.185 75.7494 469.327 75.7494C470.406 75.7494 471.168 76.5669 471.168 77.6986C471.168 78.7675 470.406 79.6477 469.327 79.6477C468.185 79.5847 467.487 78.7675 467.487 77.6986V77.6986ZM422.941 77.6986V74.6804H421.608V75.4349C421.164 74.8692 420.529 74.5547 419.704 74.5547C417.991 74.5547 416.659 75.8751 416.659 77.6986C416.659 79.522 417.991 80.8424 419.704 80.8424C420.593 80.8424 421.227 80.5282 421.608 79.9622V80.7167H422.941V77.6986V77.6986ZM417.991 77.6986C417.991 76.6296 418.689 75.7494 419.831 75.7494C420.91 75.7494 421.672 76.5669 421.672 77.6986C421.672 78.7675 420.91 79.6477 419.831 79.6477C418.689 79.5847 417.991 78.7675 417.991 77.6986V77.6986Z" fill="black"/>
<path d="M428.969 28.8418H448.957V64.4313H428.969V28.8418Z" fill="#FF5F00"/>
<path d="M430.238 46.6364C430.238 39.4055 433.665 32.9917 438.931 28.8416C435.061 25.8234 430.175 24 424.845 24C412.216 24 402 34.1234 402 46.6364C402 59.1492 412.216 69.2729 424.844 69.2729C430.175 69.2729 435.061 67.4495 438.931 64.431C433.665 60.3439 430.238 53.8674 430.238 46.6364V46.6364Z" fill="#EB001B"/>
<path d="M475.927 46.6364C475.927 59.1492 465.71 69.2729 453.082 69.2729C447.752 69.2729 442.866 67.4495 438.995 64.431C444.325 60.2812 447.689 53.8674 447.689 46.6364C447.689 39.4055 444.262 32.9917 438.995 28.8416C442.866 25.8234 447.752 24 453.082 24C465.71 24 475.927 34.1864 475.927 46.6364H475.927Z" fill="#F79E1B"/>
<defs>
<linearGradient id="paint0_linear_183_38" x1="317.457" y1="67.5817" x2="318.314" y2="37.7993" gradientUnits="userSpaceOnUse">
<stop stop-color="#222357"/>
<stop offset="1" stop-color="#254AA5"/>
</linearGradient>
</defs>
</svg>
