<svg width="500" height="100" viewBox="0 0 500 100" fill="none" xmlns="http://www.w3.org/2000/svg">
<rect width="500" height="100" fill="white"/>
<path d="M55.0361 54.5563C55.0361 53.8758 54.7445 53.5028 54.3047 53.2367C53.8569 52.9801 53.3166 52.945 52.5772 52.945H49.2992V58.9377H50.735V56.7558H52.2712C52.7764 56.7558 53.0935 56.8068 53.2832 57.0219C53.5397 57.2961 53.5079 57.8268 53.5079 58.1934V58.9329H54.9023V57.7535C54.9023 57.2228 54.8704 56.9566 54.6792 56.657C54.4915 56.4322 54.248 56.2607 53.9732 56.1597L54.013 56.1422C54.4035 55.9939 55.0345 55.511 55.0345 54.5563H55.0361ZM53.1844 55.4186L53.1254 55.4106C52.9342 55.527 52.7111 55.5365 52.4194 55.5365H50.7031V54.1993H52.4545C52.7111 54.1993 52.9597 54.1993 53.1605 54.3077C53.2605 54.3565 53.3437 54.4339 53.3996 54.5301C53.4555 54.6263 53.4815 54.737 53.4744 54.848C53.4744 55.1046 53.374 55.3022 53.1923 55.4202L53.1844 55.4186ZM64.1324 57.6531H61.3771V58.9329H64.1499C65.5842 58.9329 66.381 58.3416 66.381 57.057C66.381 56.4577 66.2407 56.1007 65.9842 55.8202C65.6607 55.5381 65.1443 55.4042 64.4336 55.3803L63.6352 55.3469C63.4121 55.3469 63.2543 55.3469 63.0886 55.2815C62.994 55.2519 62.9117 55.192 62.8544 55.1111C62.7971 55.0302 62.768 54.9327 62.7715 54.8337C62.7715 54.6424 62.8049 54.4846 62.9627 54.3938C63.14 54.2949 63.3417 54.2485 63.5444 54.2599H66.1499V52.9832H63.2862C61.793 52.9832 61.2528 53.9124 61.2528 54.7683C61.2528 56.6856 62.8974 56.5852 64.2424 56.6187C64.4575 56.6187 64.6232 56.6506 64.7141 56.7414C64.8145 56.81 64.8878 56.9662 64.8878 57.1239C64.8878 57.2897 64.8129 57.4475 64.722 57.5065C64.5993 57.6212 64.4081 57.6547 64.134 57.6547L64.1324 57.6531ZM21.0048 24V45.4589L22.7243 41.4665H26.4421L26.9218 42.4546V41.4665H31.2628L32.2174 43.6324L33.148 41.484H46.9677C47.5908 41.484 48.1534 41.6067 48.5693 41.9892V41.4983H52.37V41.9892C53.0154 41.6242 53.8218 41.4983 54.7429 41.4983H60.2775L60.7938 42.4865V41.4983H64.8686L65.4057 42.4865V41.4904H69.3578V49.8849H65.3483L64.585 48.6051V49.8498H59.5795L59.0392 48.5126H57.7946L57.2225 49.8148H54.6489C53.6274 49.8148 52.864 49.5996 52.3493 49.3095V49.8148H46.206V47.9405C46.206 47.6839 46.1486 47.6839 45.9908 47.6488H45.7661V49.8482H33.889V48.8362L33.4412 49.8482H30.968L30.5361 48.8362V49.8227H25.7473L25.2071 48.4951H23.9705L23.4334 49.8227H21V75H71.5379V59.8924C70.9658 60.1809 70.2359 60.2733 69.471 60.2733H65.8121V59.733C65.3642 60.082 64.6009 60.2733 63.8695 60.2733H52.2569V58.3655C52.2569 58.1089 52.2139 58.1089 52.0003 58.1089H51.8425V60.2829H48.0163V58.0181C47.3852 58.3097 46.6458 58.332 46.0402 58.3097H45.5924V60.2526H40.963L39.8093 58.9393L38.5965 60.2191H31.0763V51.8676H38.7463L39.8491 53.1474L41.0284 51.8676H46.1486C46.7462 51.8676 47.7167 51.9361 48.1486 52.3505V51.8357H52.7716C53.2035 51.8357 54.1421 51.9361 54.6967 52.3154V51.8102H61.6273V52.3154C61.9763 51.9664 62.7157 51.8102 63.3372 51.8102H67.3531V52.3154C67.769 52.0015 68.3411 51.8102 69.1379 51.8102H71.6367V24.0016L21.0048 24ZM65.9571 55.7756C65.965 55.7931 65.965 55.8091 65.9746 55.8186C66.0001 55.833 66.032 55.833 66.0495 55.8585L65.9587 55.7836L65.9571 55.7756ZM71.6351 51.8007H71.7769V52.9801H71.6351V51.8007ZM71.7084 55.9413V55.9238C71.651 55.8744 71.6175 55.8266 71.5506 55.7756C71.2367 55.452 70.7203 55.3182 69.9315 55.3022L69.1602 55.2783C68.9116 55.2783 68.7538 55.2608 68.5881 55.213C68.4936 55.1831 68.4115 55.1232 68.3543 55.0424C68.297 54.9615 68.2678 54.8641 68.271 54.7651C68.271 54.5739 68.3363 54.4225 68.4622 54.3316C68.62 54.2408 68.7761 54.2248 69.0343 54.2248H71.6335V52.9801H68.9116C67.4407 52.9801 66.8702 53.9092 66.8702 54.7651C66.8702 56.6729 68.5291 56.5821 69.8662 56.6155C70.0909 56.6155 70.2486 56.6394 70.3395 56.7382C70.4399 56.8068 70.5052 56.963 70.5052 57.1208C70.504 57.1948 70.4862 57.2676 70.4531 57.3338C70.42 57.4 70.3725 57.4579 70.314 57.5033C70.2136 57.618 70.0223 57.6515 69.7419 57.6515H67.0009V58.9377H69.7339C70.6279 58.9377 71.294 58.6891 71.651 58.1743H71.7084C71.8996 57.8826 72 57.5351 72 57.0634C72 56.547 71.8996 56.233 71.7084 55.9413V55.9413ZM60.5213 54.1914V52.9546H55.7724V58.9728H60.5213V57.728H57.1827V56.5247H60.4384V55.2799H57.1827V54.2009L60.5213 54.1914ZM49.7151 42.6682H51.1669V48.6545H49.7151V42.6682ZM48.8928 44.2795L48.8753 44.297C48.8753 43.6229 48.6012 43.234 48.1534 42.9694C47.696 42.7032 47.159 42.6777 46.4371 42.6777H43.167V48.6704H44.6012V46.471H46.1295C46.6347 46.471 46.9598 46.5363 47.1669 46.7276C47.4267 47.0193 47.3916 47.5325 47.3916 47.8895V48.6465H48.8275V47.4751C48.8275 46.9443 48.794 46.6782 48.5932 46.3706C48.4064 46.1491 48.1669 45.9781 47.8968 45.8733C48.2037 45.7376 48.4633 45.5135 48.6424 45.2297C48.8215 44.9458 48.912 44.615 48.9024 44.2795H48.8928ZM47.0761 45.1194H47.0506C46.8514 45.2342 46.6347 45.2422 46.3446 45.2422H44.5933V43.9145H46.3446C46.6012 43.9145 46.8498 43.9225 47.041 44.0229C47.2323 44.1058 47.3645 44.297 47.3645 44.5536C47.3645 44.8102 47.2641 45.019 47.0761 45.1194ZM54.8353 43.9145H56.1724V42.6443H54.8019C53.8218 42.6443 53.0999 42.869 52.6362 43.3439C52.0306 43.9815 51.8712 44.8118 51.8712 45.7091C51.8712 46.7977 52.1278 47.4767 52.6362 47.9835C53.1254 48.4887 54.0051 48.6481 54.6935 48.6481H56.3556L56.8959 47.3109H59.8488L60.405 48.6481H63.2926V44.1648L66.0001 48.6481H68.0256V42.6698H66.5642V46.8455L64.0591 42.6777H61.8918V48.2226L59.4839 42.5789H57.35L55.3501 47.3029H54.711C54.3397 47.3029 53.9397 47.2376 53.7166 47.0113C53.4505 46.6973 53.3262 46.2479 53.3262 45.6087C53.3262 45.0031 53.4919 44.5202 53.7326 44.2715C54.0146 43.9799 54.3142 43.9145 54.829 43.9145H54.8353ZM58.3795 43.6914L59.3596 46.0646V46.0725H57.3835L58.3795 43.6914ZM26.0597 47.3093L26.5999 48.6465H29.505V43.9655L31.5719 48.6465H32.8086L34.8739 43.9655L34.9074 48.6465H36.3751V42.6777H34.0022L32.2923 46.7196L30.4261 42.6698H28.1106V48.3309L25.6868 42.6698H23.5705L21.0319 48.6481H22.5569L23.1051 47.3205H26.0613L26.0597 47.3093ZM24.5984 43.6914L25.5784 46.0646L25.5704 46.0725H23.6278L24.5984 43.6914ZM46.1948 52.945H41.6483L39.838 54.9038L38.0866 52.945H32.3687V58.9377H38.0037L39.8204 56.955L41.5734 58.9313H44.3351V56.9375H46.1199C47.39 56.9375 48.6012 56.5884 48.6012 54.9293L48.5932 54.9213C48.5932 53.2622 47.3247 52.945 46.1948 52.945V52.945ZM37.3057 57.6866H33.795V56.4992H36.9137V55.2799H33.795V54.2009H37.3631L38.9248 55.9429L37.2978 57.6945L37.3057 57.6866ZM42.9152 58.3926L40.724 55.9509L42.9152 53.6032V58.3926ZM46.2108 55.7182H44.3351V54.1898H46.2108C46.7255 54.1898 47.108 54.3985 47.108 54.9213C47.108 55.4441 46.794 55.7182 46.2108 55.7182ZM42.1869 43.9145V42.6698H37.43V48.6561H42.1869V47.4193H38.8483V46.2224H42.0945V44.9935H38.8483V43.9145H42.1869Z" fill="#2569AE"/>
<path d="M351 41.668L340.427 65H337.157L341.085 56.8352L334.125 41.6655H337.565L342.602 53.2927H342.667L347.545 41.6655L351 41.668ZM307.074 48.8828V58.3351H303.751V35.0031H312.544C314.632 34.9466 316.664 35.6666 318.239 37.0206C319.796 38.283 320.652 40.068 320.626 41.9555C320.637 42.9053 320.427 43.845 320.014 44.7025C319.6 45.5601 318.993 46.3127 318.239 46.9029C316.711 48.2303 314.812 48.8828 312.544 48.8828H307.074ZM307.062 37.8805V46.0179H312.625C313.836 46.0608 315.016 45.6305 315.908 44.8204C316.766 44.0654 317.24 43.0354 317.24 41.968C317.24 40.888 316.764 39.858 315.908 39.1155C315.471 38.7048 314.956 38.3838 314.392 38.1714C313.829 37.959 313.228 37.8593 312.625 37.878L307.062 37.8805ZM327.283 41.668C329.392 41.668 331.067 42.2529 332.292 43.4129C333.517 44.5729 334.125 46.1604 334.125 48.1778V57.8251H331.384V55.6502H331.265C330.078 57.4352 328.508 58.3326 326.544 58.3326C324.856 58.3326 323.459 57.8251 322.325 56.7952C321.777 56.3168 321.342 55.7269 321.048 55.066C320.755 54.4052 320.61 53.6893 320.624 52.9677C320.624 51.3528 321.216 50.0653 322.416 49.1003C323.603 48.1503 325.197 47.6678 327.187 47.6678C328.888 47.6678 330.285 47.9928 331.379 48.6303V47.9528C331.382 47.461 331.279 46.9742 331.077 46.5249C330.874 46.0756 330.577 45.6743 330.204 45.3479C329.454 44.6543 328.463 44.2721 327.435 44.2804C325.84 44.2804 324.575 44.9704 323.638 46.3504L321.12 44.7354C322.504 42.6904 324.56 41.663 327.276 41.663L327.283 41.668ZM323.58 53.0352C323.574 53.4057 323.657 53.7723 323.822 54.105C323.987 54.4378 324.23 54.7274 324.529 54.9502C325.162 55.4577 325.954 55.7327 326.757 55.7177C327.956 55.7177 329.116 55.2227 329.974 54.3502C330.882 53.5177 331.399 52.3452 331.399 51.1203C330.503 50.3903 329.262 50.0253 327.668 50.0253C326.493 50.0253 325.532 50.3128 324.755 50.8853C323.977 51.4703 323.58 52.1753 323.58 53.0327V53.0352ZM283.78 35.0031C287.188 34.9625 290.484 36.206 292.996 38.4805L289.068 42.2829C287.633 40.968 285.737 40.2538 283.78 40.2905C282.072 40.2987 280.409 40.8323 279.023 41.8171C277.636 42.8019 276.594 44.1889 276.043 45.7854C275.463 47.4388 275.463 49.2368 276.043 50.8903C276.594 52.4867 277.636 53.8738 279.023 54.8585C280.409 55.8433 282.072 56.3769 283.78 56.3852C285.638 56.3852 287.235 55.9302 288.473 55.1227C289.185 54.6647 289.795 54.0683 290.267 53.3699C290.738 52.6715 291.06 51.8857 291.214 51.0603H283.778V45.9304H296.763C296.922 46.8279 297 47.7278 297 48.6378C297 52.7002 295.497 56.1377 292.9 58.4551C290.619 60.4876 287.496 61.6701 283.778 61.6701C281.24 61.6828 278.747 61.004 276.575 59.7081C274.402 58.4123 272.634 56.5497 271.464 54.3252C270.502 52.4715 270 50.4183 270 48.3353C270 46.2523 270.502 44.1992 271.464 42.3454C272.632 40.1231 274.398 38.2618 276.568 36.9661C278.738 35.6704 281.227 34.9903 283.763 35.0006L283.78 35.0031Z" fill="black"/>
<path d="M403.797 36.2548C402.845 37.3675 401.329 38.2493 399.815 38.1201C399.615 36.6199 400.37 35.0129 401.24 34.0169C402.19 32.8818 403.85 32.0671 405.197 32C405.357 33.5673 404.734 35.1073 403.8 36.2548H403.797ZM405.182 38.4157C402.982 38.2841 401.094 39.6551 400.051 39.6551C398.985 39.6551 397.387 38.4803 395.648 38.52C393.393 38.5473 391.284 39.8116 390.137 41.8459C387.75 45.892 389.517 51.883 391.81 55.1815C392.932 56.8109 394.274 58.5967 396.043 58.547C397.716 58.48 398.39 57.4616 400.407 57.4616C402.45 57.4616 403.03 58.547 404.812 58.5073C406.643 58.48 407.802 56.8779 408.924 55.2485C410.202 53.3981 410.729 51.5849 410.756 51.4955C410.729 51.4557 407.21 50.1244 407.184 46.1131C407.157 42.7475 409.951 41.1454 410.07 41.0535C408.501 38.7262 406.022 38.4803 405.179 38.4182L405.182 38.4157ZM417.88 33.8604V58.3384H421.716V49.9704H427.019C431.857 49.9704 435.259 46.6719 435.259 41.9104C435.259 37.139 431.925 33.8629 427.151 33.8629L417.88 33.8604ZM421.716 37.0695H426.133C429.455 37.0695 431.356 38.828 431.356 41.9204C431.356 45.0127 429.455 46.7862 426.108 46.7862H421.716V37.0695ZM442.244 58.5197C444.657 58.5197 446.884 57.3175 447.902 55.4H447.983V58.3384H451.527V46.1503C451.527 42.6332 448.682 40.3456 444.29 40.3456C440.229 40.3456 437.221 42.6605 437.118 45.8299H440.558C440.849 44.3173 442.247 43.3337 444.186 43.3337C446.532 43.3337 447.839 44.4191 447.839 46.4136V47.7573L443.067 48.043C438.609 48.3137 436.209 50.112 436.209 53.2565C436.209 56.4259 438.69 58.5222 442.247 58.5222L442.244 58.5197ZM443.287 55.6211C441.242 55.6211 439.938 54.6499 439.938 53.1646C439.938 51.6246 441.191 50.718 443.576 50.574L447.836 50.3157V51.6992C447.836 53.9917 445.872 55.6211 443.272 55.6211H443.287ZM456.261 65C459.99 65 461.747 63.5768 463.276 59.2947L470 40.589H466.112L461.603 55.0374H461.522L457.013 40.589H453.006L459.494 58.403L459.15 59.4884C458.555 61.314 457.608 62.0219 455.919 62.0219C455.616 62.0219 455.036 61.9846 454.798 61.9598V64.8982C455.021 64.9603 455.973 64.9876 456.249 64.9876L456.261 65Z" fill="black"/>
<path fill-rule="evenodd" clip-rule="evenodd" d="M135.271 34.6877C136.175 34.6824 138.862 34.4439 140 38.2295C140.767 40.7795 141.988 44.9565 143.664 50.7605H144.346C146.144 44.6415 147.378 40.4645 148.05 38.2295C149.2 34.4045 152.075 34.6878 153.225 34.6878L162.098 34.6878V61.8878H153.055V45.8584H152.448L147.407 61.8878H140.603L135.562 45.8465H134.956V61.8878H125.913V34.6878L135.271 34.6877ZM175.083 34.6878V50.7291H175.805L181.937 37.5385C183.127 34.9135 185.664 34.6878 185.664 34.6878H194.415V61.8878H185.183V45.8465H184.462L178.45 59.0372C177.26 61.6503 174.602 61.8878 174.602 61.8878H165.851V34.6878H175.083ZM226.325 47.6134C225.037 51.2098 220.993 53.7854 216.516 53.7854H206.834V61.8878H198.055V47.6134H226.325Z" fill="#0F754E"/>
<path fill-rule="evenodd" clip-rule="evenodd" d="M216.939 34.688H197.595C198.055 40.7436 203.347 45.9277 208.825 45.9277H226.935C227.98 40.8947 224.382 34.688 216.939 34.688Z" fill="url(#paint0_linear_183_39)"/>
<defs>
<linearGradient id="paint0_linear_183_39" x1="227.113" y1="41.7582" x2="197.595" y2="41.7582" gradientUnits="userSpaceOnUse">
<stop stop-color="#1F5CD7"/>
<stop offset="1" stop-color="#02AEFF"/>
</linearGradient>
</defs>
</svg>
