<svg width="433" height="278" viewBox="0 0 433 278" fill="none" xmlns="http://www.w3.org/2000/svg">
<g clip-path="url(#clip0_9_50)">
<rect width="433" height="278" rx="18" fill="#2EB091"/>
<rect x="20.5" y="103.5" width="61" height="54.5304" rx="9.5" fill="url(#paint0_linear_9_50)" stroke="black"/>
<path d="M40.7565 103.539V106.774M40.7565 106.774L51.2695 116.209M40.7565 106.774H22.9651M51.2695 116.209V119.713H39.9478M51.2695 116.209L55.313 112.704M39.9478 119.713L38.8695 118.635H20.5391M39.9478 119.713C39.9478 124.139 39.9478 127.581 39.9478 131.035M39.9478 142.087H51.2695V145.861M39.9478 142.087L38.5999 143.165H20.5391M39.9478 142.087C39.9478 137.776 39.9478 134.399 39.9478 131.035M51.2695 145.861L40.7565 154.756M51.2695 145.861L61.7825 154.756M40.7565 154.756V158.261M40.7565 154.756C39.4625 154.756 28.626 154.756 22.9651 154.756M39.9478 131.035H35.0956M20.5391 131.035H25.3912M61.7825 103.539V106.774M61.7825 106.774H79.0347M61.7825 106.774L58.0086 110.548M61.7825 154.756V158.261M61.7825 154.756C63.0765 154.756 73.3738 154.756 79.0347 154.756M81.9999 143.165H63.9391L62.5912 142.087C62.5912 137.776 62.5912 134.399 62.5912 131.035M81.9999 118.635H63.6695L62.5912 119.713C62.5912 124.139 62.5912 127.581 62.5912 131.035M62.5912 131.035H66.9043M81.9999 131.035H77.4173" stroke="black"/>
<path fill-rule="evenodd" clip-rule="evenodd" d="M80.534 28.414H80.5186V37.1556C80.5186 38.2697 81.4218 39.1729 82.5359 39.1729C83.65 39.1729 84.5532 38.2697 84.5532 37.1556L84.5532 28.7502L84.5532 28.414H84.5474C84.5072 27.2483 84.2581 26.0983 83.811 25.019C83.321 23.836 82.6028 22.7612 81.6974 21.8558C80.792 20.9504 79.7172 20.2322 78.5342 19.7422C77.3513 19.2522 76.0834 19 74.803 19C73.5226 19 72.2547 19.2522 71.0717 19.7422C69.8888 20.2322 68.8139 20.9504 67.9085 21.8558C67.0031 22.7612 66.2849 23.836 65.7949 25.019C65.3479 26.0983 65.0988 27.2483 65.0585 28.414H65.0527V28.7502V37.1556C65.0527 38.2697 65.9559 39.1729 67.07 39.1729C68.1842 39.1729 69.0873 38.2697 69.0873 37.1556V28.414H69.0719C69.1094 27.7751 69.2535 27.1461 69.4991 26.5533C69.7876 25.8568 70.2104 25.2239 70.7435 24.6908C71.2766 24.1577 71.9095 23.7348 72.606 23.4463C73.3025 23.1578 74.0491 23.0093 74.803 23.0093C75.5569 23.0093 76.3034 23.1578 76.9999 23.4463C77.6964 23.7348 78.3293 24.1577 78.8624 24.6908C79.3955 25.2239 79.8184 25.8568 80.1069 26.5533C80.3524 27.1461 80.4966 27.7751 80.534 28.414ZM40.1729 29.0864C40.1729 27.0915 39.5813 25.1414 38.473 23.4827C37.3647 21.824 35.7894 20.5312 33.9464 19.7678C32.1033 19.0044 30.0753 18.8046 28.1187 19.1938C26.1621 19.583 24.3649 20.5436 22.9543 21.9543C21.5436 23.3649 20.583 25.1621 20.1938 27.1187C19.8046 29.0753 20.0044 31.1033 20.7678 32.9464C21.5312 34.7894 22.824 36.3647 24.4827 37.473C26.1414 38.5813 28.0915 39.1729 30.0864 39.1729V35.1429C28.8886 35.1429 27.7177 34.7877 26.7217 34.1222C25.7257 33.4567 24.9494 32.5108 24.4911 31.4041C24.0327 30.2975 23.9127 29.0797 24.1464 27.9049C24.3801 26.7301 24.9569 25.6509 25.8039 24.8039C26.6509 23.9569 27.7301 23.3801 28.9049 23.1464C30.0797 22.9127 31.2975 23.0327 32.4041 23.4911C33.5108 23.9495 34.4567 24.7257 35.1222 25.7217C35.7877 26.7177 36.1429 27.8886 36.1429 29.0864L36.1383 29.0864V30.4313C36.1383 31.5454 37.0415 32.4486 38.1556 32.4486C39.2697 32.4486 40.1729 31.5454 40.1729 30.4313L40.1729 29.0864ZM43.535 29.4227L43.535 29.4313V29.7589H43.5408C43.581 30.9246 43.8301 32.0746 44.2772 33.1539C44.7672 34.3369 45.4854 35.4117 46.3908 36.3171C47.2962 37.2225 48.371 37.9407 49.554 38.4307C50.7369 38.9207 52.0048 39.1729 53.2852 39.1729C54.5657 39.1729 55.8335 38.9207 57.0165 38.4307C58.1994 37.9407 59.2743 37.2225 60.1797 36.3171C61.0851 35.4117 61.8033 34.3369 62.2933 33.1539C62.7403 32.0746 62.9894 30.9246 63.0297 29.7589H63.0355L63.0355 29.4227L63.0355 21.0173C63.0355 19.9032 62.1323 19 61.0182 19C59.9041 19 59.0009 19.9032 59.0009 21.0173V29.7589H59.0163C58.9788 30.3978 58.8347 31.0268 58.5892 31.6196C58.3006 32.3161 57.8778 32.949 57.3447 33.4821C56.8116 34.0152 56.1787 34.4381 55.4822 34.7266C54.7857 35.0151 54.0392 35.1636 53.2852 35.1636C52.5313 35.1636 51.7848 35.0151 51.0883 34.7266C50.3918 34.4381 49.7589 34.0152 49.2258 33.4821C48.6927 32.949 48.2698 32.3161 47.9813 31.6196C47.7358 31.0268 47.5917 30.3978 47.5542 29.7589H47.5696V21.0173C47.5696 19.9032 46.6664 19 45.5523 19C44.4382 19 43.535 19.9032 43.535 21.0173L43.535 29.4227ZM106.065 28.414C106.025 27.2483 105.776 26.0983 105.329 25.019C104.839 23.836 104.121 22.7612 103.215 21.8558C102.31 20.9504 101.235 20.2322 100.052 19.7422C98.869 19.2522 97.6011 19 96.3207 19C95.0403 19 93.7724 19.2522 92.5895 19.7422C91.4065 20.2322 90.3317 20.9504 89.4263 21.8558C88.5209 22.7612 87.8027 23.836 87.3127 25.019C86.8656 26.0983 86.6165 27.2483 86.5763 28.414H86.5705V28.7502V37.1556C86.5705 38.2697 87.4737 39.1729 88.5878 39.1729C89.7019 39.1729 90.6051 38.2697 90.6051 37.1556V28.414H90.5897C90.6271 27.7751 90.7713 27.1461 91.0168 26.5533C91.3053 25.8568 91.7282 25.2239 92.2613 24.6908C92.7944 24.1577 93.4272 23.7348 94.1238 23.4463C94.8203 23.1578 95.5668 23.0093 96.3207 23.0093C97.0746 23.0093 97.8211 23.1578 98.5177 23.4463C99.2142 23.7348 99.8471 24.1577 100.38 24.6908C100.913 25.2239 101.336 25.8568 101.625 26.5533C101.87 27.1461 102.014 27.7751 102.052 28.414H95.9845C94.8704 28.414 93.9672 29.3172 93.9672 30.4313C93.9672 31.0297 94.2278 31.5673 94.6417 31.9368C94.6672 31.9654 94.6937 31.9934 94.7212 32.0209L101.637 38.9369C102.425 39.7247 103.702 39.7247 104.49 38.9369C105.278 38.1491 105.278 36.8718 104.49 36.084L100.855 32.4486H102.036C104.151 32.4486 105.886 30.8211 106.057 28.7502H106.071C106.071 28.6822 106.07 28.6142 106.069 28.5462C106.07 28.5023 106.071 28.4583 106.071 28.414H106.065ZM111.443 20.8495C111.358 19.8139 110.491 19 109.433 19C109.361 19 109.289 19.0038 109.219 19.0112C108.253 19.0154 107.411 19.7206 107.441 20.6944C107.425 20.7995 107.416 20.9074 107.416 21.0173V37.1556C107.416 38.2697 108.319 39.1729 109.433 39.1729C110.547 39.1729 111.45 38.2697 111.45 37.1556V27.9079C111.981 28.2915 112.549 28.6218 113.149 28.893C113.487 29.0456 113.832 29.1785 114.183 29.2913C114.196 29.3047 114.209 29.318 114.222 29.3312L123.693 38.803C124.481 39.5908 125.759 39.5908 126.546 38.803C127.334 38.0152 127.334 36.7379 126.546 35.9501L119.949 29.3531C120.368 29.2285 120.779 29.0755 121.179 28.8948C122.441 28.325 123.567 27.493 124.482 26.4542C125.397 25.4153 126.081 24.1935 126.487 22.8699C126.696 22.1875 126.83 21.4862 126.886 20.7786C126.973 19.6749 125.948 18.8913 124.85 19.031C123.751 19.1708 123.01 20.1964 122.765 21.2762C122.733 21.4164 122.696 21.5555 122.654 21.6934C122.415 22.4727 122.012 23.1921 121.474 23.8038C120.935 24.4154 120.272 24.9053 119.529 25.2408C118.786 25.5763 117.98 25.7497 117.165 25.7496C116.349 25.7494 115.544 25.5756 114.801 25.2397C114.058 24.9039 113.395 24.4137 112.857 23.8018C112.318 23.1898 111.916 22.4702 111.677 21.6908C111.635 21.553 111.598 21.4138 111.566 21.2736C111.534 21.1307 111.493 20.9886 111.443 20.8495ZM30.7589 35.1383H42.1902C43.3043 35.1383 44.2074 36.0415 44.2074 37.1556C44.2074 38.2697 43.3043 39.1729 42.1902 39.1729H30.7589V35.1383ZM79.8462 29.0864V33.121H69.7598V29.0864H79.8462Z" fill="white"/>
<path d="M69.4275 235.858C67.8449 235.282 66.1739 234.992 64.4911 235C59.0575 235 55.2176 237.765 55.1943 241.722C55.1496 244.63 57.9164 246.269 60.0074 247.25C62.1558 248.253 62.874 248.878 62.8634 249.768C62.8527 251.14 61.1464 251.752 59.576 251.752C57.3936 251.752 56.21 251.453 54.3846 250.682L53.7068 250.359L52.9333 254.93C54.2614 255.476 56.6414 255.955 59.0979 256C64.8864 256 68.6604 253.259 68.7029 249.032C68.7475 246.715 67.2664 244.955 64.1107 243.505C62.2067 242.569 61.0146 241.932 61.0146 240.973C61.0146 240.125 62.0325 239.235 64.1575 239.235C65.5677 239.2 66.9697 239.461 68.2736 240.004L68.7943 240.237L69.5571 235.835L69.4275 235.858ZM83.5524 235.379H79.3024C77.9743 235.379 76.9883 235.736 76.4017 237.063L68.2332 255.709H74.0111L75.1756 252.655L82.2243 252.666C82.4006 253.379 82.8979 255.707 82.8979 255.707H88L83.5524 235.379ZM47.37 235.212H52.8716L49.4291 255.551H43.9275L47.37 235.201V235.212ZM33.3811 246.413L33.9442 249.244L39.3332 235.379H45.1664L36.4879 255.675H30.6803L25.9202 238.488C25.8838 238.346 25.8188 238.212 25.7293 238.095C25.6398 237.979 25.5276 237.882 25.3996 237.81C23.6898 236.914 21.876 236.237 20 235.792L20.0659 235.366H28.942C30.1384 235.411 31.1116 235.792 31.4431 237.085L33.3811 246.424V246.413ZM76.7439 248.497L78.9475 242.803C78.9135 242.856 79.4001 241.632 79.6764 240.862L80.0525 242.61L81.3275 248.484H76.7439V248.497Z" fill="#5CE0C1"/>
<path fill-rule="evenodd" clip-rule="evenodd" d="M409.996 138C409.801 116 403.187 94.5261 390.956 76.2206C378.54 57.6379 360.891 43.1544 340.243 34.6017C319.595 26.049 296.875 23.8112 274.955 28.1713C253.035 32.5314 232.9 43.2937 217.097 59.097C201.294 74.9003 190.531 95.035 186.171 116.955C181.811 138.875 184.049 161.595 192.602 182.243C201.154 202.891 215.638 220.54 234.221 232.956C252.803 245.373 274.651 252 297 252V202.989C284.344 202.989 271.973 199.236 261.45 192.205C250.927 185.174 242.725 175.18 237.882 163.488C233.039 151.795 231.771 138.929 234.24 126.516C236.709 114.104 242.804 102.702 251.753 93.7529C260.702 84.8038 272.104 78.7095 284.516 76.2404C296.929 73.7714 309.795 75.0386 321.488 79.8818C333.18 84.725 343.174 92.9266 350.205 103.45C357.236 113.973 360.989 126.344 360.989 139H361V151.5C361 165.031 371.969 176 385.5 176C399.031 176 410 165.031 410 151.5V139V138H409.996ZM314 203H441.5C455.031 203 466 213.969 466 227.5C466 241.031 455.031 252 441.5 252H314V203Z" fill="url(#paint1_linear_9_50)"/>
</g>
<defs>
<linearGradient id="paint0_linear_9_50" x1="22.6957" y1="106.774" x2="79.0348" y2="155.835" gradientUnits="userSpaceOnUse">
<stop stop-color="#FFFAE0"/>
<stop offset="0.958333" stop-color="#B7A178"/>
</linearGradient>
<linearGradient id="paint1_linear_9_50" x1="174" y1="60.5" x2="429" y2="252" gradientUnits="userSpaceOnUse">
<stop stop-color="#69FD87"/>
<stop offset="1" stop-color="#9DEDD4"/>
</linearGradient>
<clipPath id="clip0_9_50">
<rect width="433" height="278" rx="18" fill="white"/>
</clipPath>
</defs>
</svg>
