<svg width="453" height="298" viewBox="0 0 453 298" fill="none" xmlns="http://www.w3.org/2000/svg">
<g filter="url(#filter0_d_75_484)">
<g clip-path="url(#clip0_75_484)">
<rect x="10" y="5" width="433" height="278" rx="18" fill="#242424"/>
<path fill-rule="evenodd" clip-rule="evenodd" d="M90.534 34.414H90.5186V43.1556C90.5186 44.2697 91.4218 45.1729 92.5359 45.1729C93.65 45.1729 94.5532 44.2697 94.5532 43.1556L94.5532 34.7502L94.5532 34.414H94.5474C94.5072 33.2483 94.2581 32.0983 93.811 31.019C93.321 29.836 92.6028 28.7612 91.6974 27.8558C90.792 26.9504 89.7172 26.2322 88.5342 25.7422C87.3513 25.2522 86.0834 25 84.803 25C83.5226 25 82.2547 25.2522 81.0717 25.7422C79.8888 26.2322 78.8139 26.9504 77.9085 27.8558C77.0031 28.7612 76.2849 29.836 75.7949 31.019C75.3479 32.0983 75.0988 33.2483 75.0585 34.414H75.0527V34.7502V43.1556C75.0527 44.2697 75.9559 45.1729 77.07 45.1729C78.1842 45.1729 79.0873 44.2697 79.0873 43.1556V34.414H79.0719C79.1094 33.7751 79.2535 33.1461 79.4991 32.5533C79.7876 31.8568 80.2104 31.2239 80.7435 30.6908C81.2766 30.1577 81.9095 29.7348 82.606 29.4463C83.3025 29.1578 84.0491 29.0093 84.803 29.0093C85.5569 29.0093 86.3034 29.1578 86.9999 29.4463C87.6964 29.7348 88.3293 30.1577 88.8624 30.6908C89.3955 31.2239 89.8184 31.8568 90.1069 32.5533C90.3524 33.1461 90.4966 33.7751 90.534 34.414ZM50.1729 35.0864C50.1729 33.0915 49.5813 31.1414 48.473 29.4827C47.3647 27.824 45.7894 26.5312 43.9464 25.7678C42.1033 25.0044 40.0753 24.8046 38.1187 25.1938C36.1621 25.583 34.3649 26.5436 32.9543 27.9543C31.5436 29.3649 30.583 31.1621 30.1938 33.1187C29.8046 35.0753 30.0044 37.1033 30.7678 38.9464C31.5312 40.7894 32.824 42.3647 34.4827 43.473C36.1414 44.5813 38.0915 45.1729 40.0864 45.1729V41.1429C38.8886 41.1429 37.7177 40.7877 36.7217 40.1222C35.7257 39.4567 34.9494 38.5108 34.4911 37.4041C34.0327 36.2975 33.9127 35.0797 34.1464 33.9049C34.3801 32.7301 34.9569 31.6509 35.8039 30.8039C36.6509 29.9569 37.7301 29.3801 38.9049 29.1464C40.0797 28.9127 41.2975 29.0327 42.4041 29.4911C43.5108 29.9495 44.4567 30.7257 45.1222 31.7217C45.7877 32.7177 46.1429 33.8886 46.1429 35.0864L46.1383 35.0864V36.4313C46.1383 37.5454 47.0415 38.4486 48.1556 38.4486C49.2697 38.4486 50.1729 37.5454 50.1729 36.4313L50.1729 35.0864ZM53.535 35.4227L53.535 35.4313V35.7589H53.5408C53.581 36.9246 53.8301 38.0746 54.2772 39.1539C54.7672 40.3369 55.4854 41.4117 56.3908 42.3171C57.2962 43.2225 58.371 43.9407 59.554 44.4307C60.7369 44.9207 62.0048 45.1729 63.2852 45.1729C64.5657 45.1729 65.8335 44.9207 67.0165 44.4307C68.1994 43.9407 69.2743 43.2225 70.1797 42.3171C71.0851 41.4117 71.8033 40.3369 72.2933 39.1539C72.7403 38.0746 72.9894 36.9246 73.0297 35.7589H73.0355L73.0355 35.4227L73.0355 27.0173C73.0355 25.9032 72.1323 25 71.0182 25C69.9041 25 69.0009 25.9032 69.0009 27.0173V35.7589H69.0163C68.9788 36.3978 68.8347 37.0268 68.5892 37.6196C68.3006 38.3161 67.8778 38.949 67.3447 39.4821C66.8116 40.0152 66.1787 40.4381 65.4822 40.7266C64.7857 41.0151 64.0392 41.1636 63.2852 41.1636C62.5313 41.1636 61.7848 41.0151 61.0883 40.7266C60.3918 40.4381 59.7589 40.0152 59.2258 39.4821C58.6927 38.949 58.2698 38.3161 57.9813 37.6196C57.7358 37.0268 57.5917 36.3978 57.5542 35.7589H57.5696V27.0173C57.5696 25.9032 56.6664 25 55.5523 25C54.4382 25 53.535 25.9032 53.535 27.0173L53.535 35.4227ZM116.065 34.414C116.025 33.2483 115.776 32.0983 115.329 31.019C114.839 29.836 114.121 28.7612 113.215 27.8558C112.31 26.9504 111.235 26.2322 110.052 25.7422C108.869 25.2522 107.601 25 106.321 25C105.04 25 103.772 25.2522 102.589 25.7422C101.407 26.2322 100.332 26.9504 99.4263 27.8558C98.5209 28.7612 97.8027 29.836 97.3127 31.019C96.8656 32.0983 96.6165 33.2483 96.5763 34.414H96.5705V34.7502V43.1556C96.5705 44.2697 97.4737 45.1729 98.5878 45.1729C99.7019 45.1729 100.605 44.2697 100.605 43.1556V34.414H100.59C100.627 33.7751 100.771 33.1461 101.017 32.5533C101.305 31.8568 101.728 31.2239 102.261 30.6908C102.794 30.1577 103.427 29.7348 104.124 29.4463C104.82 29.1578 105.567 29.0093 106.321 29.0093C107.075 29.0093 107.821 29.1578 108.518 29.4463C109.214 29.7348 109.847 30.1577 110.38 30.6908C110.913 31.2239 111.336 31.8568 111.625 32.5533C111.87 33.1461 112.014 33.7751 112.052 34.414H105.984C104.87 34.414 103.967 35.3172 103.967 36.4313C103.967 37.0297 104.228 37.5673 104.642 37.9368C104.667 37.9654 104.694 37.9934 104.721 38.0209L111.637 44.9369C112.425 45.7247 113.702 45.7247 114.49 44.9369C115.278 44.1491 115.278 42.8718 114.49 42.084L110.855 38.4486H112.036C114.151 38.4486 115.886 36.8211 116.057 34.7502H116.071C116.071 34.6822 116.07 34.6142 116.069 34.5462C116.07 34.5023 116.071 34.4583 116.071 34.414H116.065ZM121.443 26.8495C121.358 25.8139 120.491 25 119.433 25C119.361 25 119.289 25.0038 119.219 25.0112C118.253 25.0154 117.411 25.7206 117.441 26.6944C117.425 26.7995 117.416 26.9074 117.416 27.0173V43.1556C117.416 44.2697 118.319 45.1729 119.433 45.1729C120.547 45.1729 121.45 44.2697 121.45 43.1556V33.9079C121.981 34.2915 122.549 34.6218 123.149 34.893C123.487 35.0456 123.832 35.1785 124.183 35.2913C124.196 35.3047 124.209 35.318 124.222 35.3312L133.693 44.803C134.481 45.5908 135.759 45.5908 136.546 44.803C137.334 44.0152 137.334 42.7379 136.546 41.9501L129.949 35.3531C130.368 35.2285 130.779 35.0755 131.179 34.8948C132.441 34.325 133.567 33.493 134.482 32.4542C135.397 31.4153 136.081 30.1935 136.487 28.8699C136.696 28.1875 136.83 27.4862 136.886 26.7786C136.973 25.6749 135.948 24.8913 134.85 25.031C133.751 25.1708 133.01 26.1964 132.765 27.2762C132.733 27.4164 132.696 27.5555 132.654 27.6934C132.415 28.4727 132.012 29.1921 131.474 29.8038C130.935 30.4154 130.272 30.9053 129.529 31.2408C128.786 31.5763 127.98 31.7497 127.165 31.7496C126.349 31.7494 125.544 31.5756 124.801 31.2397C124.058 30.9039 123.395 30.4137 122.857 29.8018C122.318 29.1898 121.916 28.4702 121.677 27.6908C121.635 27.553 121.598 27.4138 121.566 27.2736C121.534 27.1307 121.493 26.9886 121.443 26.8495ZM40.7589 41.1383H52.1902C53.3043 41.1383 54.2074 42.0415 54.2074 43.1556C54.2074 44.2697 53.3043 45.1729 52.1902 45.1729H40.7589V41.1383ZM89.8462 35.0864V39.121H79.7598V35.0864H89.8462Z" fill="white"/>
<path d="M79.4275 241.858C77.8449 241.282 76.1739 240.992 74.4911 241C69.0575 241 65.2176 243.765 65.1943 247.722C65.1496 250.63 67.9164 252.269 70.0074 253.25C72.1558 254.253 72.874 254.878 72.8634 255.768C72.8527 257.14 71.1464 257.752 69.576 257.752C67.3936 257.752 66.21 257.453 64.3846 256.682L63.7068 256.359L62.9333 260.93C64.2614 261.476 66.6414 261.955 69.0979 262C74.8864 262 78.6604 259.259 78.7029 255.032C78.7475 252.715 77.2664 250.955 74.1107 249.505C72.2067 248.569 71.0146 247.932 71.0146 246.973C71.0146 246.125 72.0325 245.235 74.1575 245.235C75.5677 245.2 76.9697 245.461 78.2736 246.004L78.7943 246.237L79.5571 241.835L79.4275 241.858ZM93.5524 241.379H89.3024C87.9743 241.379 86.9883 241.736 86.4017 243.063L78.2332 261.709H84.0111L85.1756 258.655L92.2243 258.666C92.4006 259.379 92.8979 261.707 92.8979 261.707H98L93.5524 241.379ZM57.37 241.212H62.8716L59.4291 261.551H53.9275L57.37 241.201V241.212ZM43.3811 252.413L43.9442 255.244L49.3332 241.379H55.1664L46.4879 261.675H40.6803L35.9202 244.488C35.8838 244.346 35.8188 244.212 35.7293 244.095C35.6398 243.979 35.5276 243.882 35.3996 243.81C33.6898 242.914 31.876 242.237 30 241.792L30.0659 241.366H38.942C40.1384 241.411 41.1116 241.792 41.4431 243.085L43.3811 252.424V252.413ZM86.7439 254.497L88.9475 248.803C88.9135 248.856 89.4001 247.632 89.6764 246.862L90.0525 248.61L91.3275 254.484H86.7439V254.497Z" fill="#4F4F4F"/>
<path fill-rule="evenodd" clip-rule="evenodd" d="M49.8816 115H40C37.2388 115 34.7389 116.119 32.9293 117.929H49.8816V115ZM32.0534 118.929C30.7653 120.612 30 122.717 30 125V130.5H48.386H48.5934L48.7399 130.647L49.7337 131.643H61V128.651L50.1898 118.929H32.0534ZM30 131.5V143.643H34.1316C34.4077 143.643 34.6316 143.867 34.6316 144.143C34.6316 144.419 34.4077 144.643 34.1316 144.643H30V156.5H47.9252L49.0263 155.617V144.643H44.3947C44.1186 144.643 43.8947 144.419 43.8947 144.143C43.8947 143.867 44.1186 143.643 44.3947 143.643H49.0263V132.35L48.1785 131.5H30ZM30 157.5V160.53C30 163.959 31.7252 166.984 34.3547 168.786H50.1981L61 159.626V156.357H49.702L48.4136 157.39L48.2766 157.5H48.1009H30ZM36.2063 169.786C37.3762 170.266 38.6572 170.53 40 170.53H49.8816V169.786H36.2063ZM50.8816 170.53H72.1184V169.517L61.5 160.513L50.8816 169.517V170.53ZM73.1184 170.53H82C83.3428 170.53 84.6238 170.266 85.7937 169.786H73.1184V170.53ZM87.6453 168.786C90.2748 166.984 92 163.959 92 160.53V157.5H74.8991H74.7234L74.5864 157.39L73.1609 156.247L72.9737 156.097V155.857V144.143V132.143V131.936L73.1197 131.79L74.2601 130.647L74.4066 130.5H74.614H92V125C92 122.717 91.2347 120.612 89.9466 118.929H72.8259L68.9811 122.782C68.7861 122.977 68.4695 122.978 68.274 122.783C68.0785 122.587 68.0782 122.271 68.2732 122.075L72.1184 118.222V115H50.8816V118.206L61.5058 127.761L65.4484 124.337C65.6569 124.156 65.9727 124.178 66.1538 124.386C66.3349 124.595 66.3127 124.911 66.1042 125.092L62 128.657V132.143V132.643H61.5H50.0263V144.143V155.357H61.5H62V155.857V159.626L72.8019 168.786H87.6453ZM73.1184 115V117.929H89.0707C87.2611 116.119 84.7612 115 82 115H73.1184ZM92 131.5H74.8215L73.9737 132.35V143.643H78.0351C78.3112 143.643 78.5351 143.867 78.5351 144.143C78.5351 144.419 78.3112 144.643 78.0351 144.643H73.9737V155.617L75.0748 156.5H92V144.643H89.1535C88.8774 144.643 88.6535 144.419 88.6535 144.143C88.6535 143.867 88.8774 143.643 89.1535 143.643H92V131.5Z" fill="white"/>
<path fill-rule="evenodd" clip-rule="evenodd" d="M428.996 170C428.801 148 422.187 126.526 409.956 108.221C397.54 89.6379 379.891 75.1544 359.243 66.6017C338.595 58.049 315.875 55.8112 293.955 60.1713C272.035 64.5314 251.9 75.2937 236.097 91.097C220.294 106.9 209.531 127.035 205.171 148.955C200.811 170.875 203.049 193.595 211.602 214.243C220.154 234.891 234.638 252.54 253.221 264.956C271.803 277.373 293.651 284 316 284V234.989C303.344 234.989 290.973 231.236 280.45 224.205C269.927 217.174 261.725 207.18 256.882 195.488C252.039 183.795 250.771 170.929 253.24 158.516C255.709 146.104 261.804 134.702 270.753 125.753C279.702 116.804 291.104 110.709 303.516 108.24C315.929 105.771 328.795 107.039 340.488 111.882C352.18 116.725 362.174 124.927 369.205 135.45C376.236 145.973 379.989 158.344 379.989 171H380V183.5C380 197.031 390.969 208 404.5 208C418.031 208 429 197.031 429 183.5V171V170H428.996ZM333 235H460.5C474.031 235 485 245.969 485 259.5C485 273.031 474.031 284 460.5 284H333V235Z" fill="url(#paint0_linear_75_484)"/>
<path fill-rule="evenodd" clip-rule="evenodd" d="M422.998 34.5C422.967 33.3049 422.717 32.1248 422.259 31.019C421.769 29.836 421.051 28.7612 420.145 27.8558C419.24 26.9504 418.165 26.2322 416.982 25.7422C415.799 25.2522 414.531 25 413.251 25C411.97 25 410.702 25.2522 409.519 25.7422C408.336 26.2322 407.262 26.9504 406.356 27.8558C405.451 28.7612 404.733 29.836 404.243 31.019C403.753 32.2019 403.5 33.4698 403.5 34.7502H407.51C407.51 33.9963 407.658 33.2498 407.947 32.5533C408.235 31.8568 408.658 31.2239 409.191 30.6908C409.724 30.1577 410.357 29.7348 411.054 29.4463C411.75 29.1578 412.497 29.0093 413.251 29.0093C414.005 29.0093 414.751 29.1578 415.448 29.4463C416.144 29.7348 416.777 30.1577 417.31 30.6908C417.843 31.2239 418.266 31.8568 418.555 32.5533C418.843 33.2498 418.992 33.9963 418.992 34.7502H419V37.5C419 38.6046 419.896 39.5 421 39.5C422.105 39.5 423 38.6046 423 37.5V34.7502H423.001C423.001 34.7187 423.001 34.6872 423 34.6557V34.5H422.998ZM388 34.8448V35.0005H388.003C388.034 36.1957 388.284 37.3757 388.742 38.4815C389.232 39.6645 389.95 40.7394 390.856 41.6447C391.761 42.5501 392.836 43.2683 394.019 43.7583C395.202 44.2483 396.47 44.5005 397.75 44.5005C399.031 44.5005 400.299 44.2483 401.481 43.7583C402.664 43.2683 403.739 42.5501 404.645 41.6447C405.55 40.7394 406.268 39.6645 406.758 38.4815C407.248 37.2986 407.5 36.0307 407.5 34.7503H403.491C403.491 35.5042 403.343 36.2507 403.054 36.9472C402.766 37.6438 402.343 38.2766 401.81 38.8097C401.277 39.3428 400.644 39.7657 399.947 40.0542C399.251 40.3427 398.504 40.4912 397.75 40.4912C396.996 40.4912 396.25 40.3427 395.553 40.0542C394.857 39.7657 394.224 39.3428 393.691 38.8097C393.158 38.2766 392.735 37.6438 392.446 36.9472C392.158 36.2507 392.009 35.5042 392.009 34.7503H392V32.0005C392 30.8959 391.105 30.0005 390 30.0005C388.896 30.0005 388 30.8959 388 32.0005V34.7503H388L388 34.7999L388 34.8448Z" fill="white"/>
</g>
</g>
<defs>
<filter id="filter0_d_75_484" x="0" y="0" width="453" height="298" filterUnits="userSpaceOnUse" color-interpolation-filters="sRGB">
<feFlood flood-opacity="0" result="BackgroundImageFix"/>
<feColorMatrix in="SourceAlpha" type="matrix" values="0 0 0 0 0 0 0 0 0 0 0 0 0 0 0 0 0 0 127 0" result="hardAlpha"/>
<feOffset dy="5"/>
<feGaussianBlur stdDeviation="5"/>
<feComposite in2="hardAlpha" operator="out"/>
<feColorMatrix type="matrix" values="0 0 0 0 0.220833 0 0 0 0 0.212552 0 0 0 0 0.212552 0 0 0 0.21 0"/>
<feBlend mode="normal" in2="BackgroundImageFix" result="effect1_dropShadow_75_484"/>
<feBlend mode="normal" in="SourceGraphic" in2="effect1_dropShadow_75_484" result="shape"/>
</filter>
<linearGradient id="paint0_linear_75_484" x1="223" y1="88.5" x2="437" y2="284" gradientUnits="userSpaceOnUse">
<stop stop-color="#FF603D"/>
<stop offset="0.31082" stop-color="#C7F9B5"/>
<stop offset="0.428673" stop-color="white"/>
<stop offset="0.535835" stop-color="#3F3D76"/>
<stop offset="0.979542" stop-color="#402655"/>
</linearGradient>
<clipPath id="clip0_75_484">
<rect x="10" y="5" width="433" height="278" rx="18" fill="white"/>
</clipPath>
</defs>
</svg>
