<svg width="453" height="298" viewBox="0 0 453 298" fill="none" xmlns="http://www.w3.org/2000/svg">
<g filter="url(#filter0_d_75_446)">
<g clip-path="url(#clip0_75_446)">
<rect x="10" y="5" width="433" height="278" rx="18" fill="#242424"/>
<path fill-rule="evenodd" clip-rule="evenodd" d="M82.534 33.414H82.5186V42.1556C82.5186 43.2697 83.4218 44.1729 84.5359 44.1729C85.65 44.1729 86.5532 43.2697 86.5532 42.1556L86.5532 33.7502L86.5532 33.414H86.5474C86.5072 32.2483 86.2581 31.0983 85.811 30.019C85.321 28.836 84.6028 27.7612 83.6974 26.8558C82.792 25.9504 81.7172 25.2322 80.5342 24.7422C79.3513 24.2522 78.0834 24 76.803 24C75.5226 24 74.2547 24.2522 73.0717 24.7422C71.8888 25.2322 70.8139 25.9504 69.9085 26.8558C69.0031 27.7612 68.2849 28.836 67.7949 30.019C67.3479 31.0983 67.0988 32.2483 67.0585 33.414H67.0527V33.7502V42.1556C67.0527 43.2697 67.9559 44.1729 69.07 44.1729C70.1842 44.1729 71.0873 43.2697 71.0873 42.1556V33.414H71.0719C71.1094 32.7751 71.2535 32.1461 71.4991 31.5533C71.7876 30.8568 72.2104 30.2239 72.7435 29.6908C73.2766 29.1577 73.9095 28.7348 74.606 28.4463C75.3025 28.1578 76.0491 28.0093 76.803 28.0093C77.5569 28.0093 78.3034 28.1578 78.9999 28.4463C79.6964 28.7348 80.3293 29.1577 80.8624 29.6908C81.3955 30.2239 81.8184 30.8568 82.1069 31.5533C82.3524 32.1461 82.4966 32.7751 82.534 33.414ZM42.1729 34.0864C42.1729 32.0915 41.5813 30.1414 40.473 28.4827C39.3647 26.824 37.7894 25.5312 35.9464 24.7678C34.1033 24.0044 32.0753 23.8046 30.1187 24.1938C28.1621 24.583 26.3649 25.5436 24.9543 26.9543C23.5436 28.3649 22.583 30.1621 22.1938 32.1187C21.8046 34.0753 22.0044 36.1033 22.7678 37.9464C23.5312 39.7894 24.824 41.3647 26.4827 42.473C28.1414 43.5813 30.0915 44.1729 32.0864 44.1729V40.1429C30.8886 40.1429 29.7177 39.7877 28.7217 39.1222C27.7257 38.4567 26.9494 37.5108 26.4911 36.4041C26.0327 35.2975 25.9127 34.0797 26.1464 32.9049C26.3801 31.7301 26.9569 30.6509 27.8039 29.8039C28.6509 28.9569 29.7301 28.3801 30.9049 28.1464C32.0797 27.9127 33.2975 28.0327 34.4041 28.4911C35.5108 28.9495 36.4567 29.7257 37.1222 30.7217C37.7877 31.7177 38.1429 32.8886 38.1429 34.0864L38.1383 34.0864V35.4313C38.1383 36.5454 39.0415 37.4486 40.1556 37.4486C41.2697 37.4486 42.1729 36.5454 42.1729 35.4313L42.1729 34.0864ZM45.535 34.4227L45.535 34.4313V34.7589H45.5408C45.581 35.9246 45.8301 37.0746 46.2772 38.1539C46.7672 39.3369 47.4854 40.4117 48.3908 41.3171C49.2962 42.2225 50.371 42.9407 51.554 43.4307C52.7369 43.9207 54.0048 44.1729 55.2852 44.1729C56.5657 44.1729 57.8335 43.9207 59.0165 43.4307C60.1994 42.9407 61.2743 42.2225 62.1797 41.3171C63.0851 40.4117 63.8033 39.3369 64.2933 38.1539C64.7403 37.0746 64.9894 35.9246 65.0297 34.7589H65.0355L65.0355 34.4227L65.0355 26.0173C65.0355 24.9032 64.1323 24 63.0182 24C61.9041 24 61.0009 24.9032 61.0009 26.0173V34.7589H61.0163C60.9788 35.3978 60.8347 36.0268 60.5892 36.6196C60.3006 37.3161 59.8778 37.949 59.3447 38.4821C58.8116 39.0152 58.1787 39.4381 57.4822 39.7266C56.7857 40.0151 56.0392 40.1636 55.2852 40.1636C54.5313 40.1636 53.7848 40.0151 53.0883 39.7266C52.3918 39.4381 51.7589 39.0152 51.2258 38.4821C50.6927 37.949 50.2698 37.3161 49.9813 36.6196C49.7358 36.0268 49.5917 35.3978 49.5542 34.7589H49.5696V26.0173C49.5696 24.9032 48.6664 24 47.5523 24C46.4382 24 45.535 24.9032 45.535 26.0173L45.535 34.4227ZM108.065 33.414C108.025 32.2483 107.776 31.0983 107.329 30.019C106.839 28.836 106.121 27.7612 105.215 26.8558C104.31 25.9504 103.235 25.2322 102.052 24.7422C100.869 24.2522 99.6011 24 98.3207 24C97.0403 24 95.7724 24.2522 94.5895 24.7422C93.4065 25.2322 92.3317 25.9504 91.4263 26.8558C90.5209 27.7612 89.8027 28.836 89.3127 30.019C88.8656 31.0983 88.6165 32.2483 88.5763 33.414H88.5705V33.7502V42.1556C88.5705 43.2697 89.4737 44.1729 90.5878 44.1729C91.7019 44.1729 92.6051 43.2697 92.6051 42.1556V33.414H92.5897C92.6271 32.7751 92.7713 32.1461 93.0168 31.5533C93.3053 30.8568 93.7282 30.2239 94.2613 29.6908C94.7944 29.1577 95.4272 28.7348 96.1238 28.4463C96.8203 28.1578 97.5668 28.0093 98.3207 28.0093C99.0746 28.0093 99.8211 28.1578 100.518 28.4463C101.214 28.7348 101.847 29.1577 102.38 29.6908C102.913 30.2239 103.336 30.8568 103.625 31.5533C103.87 32.1461 104.014 32.7751 104.052 33.414H97.9845C96.8704 33.414 95.9672 34.3172 95.9672 35.4313C95.9672 36.0297 96.2278 36.5673 96.6417 36.9368C96.6672 36.9654 96.6937 36.9934 96.7212 37.0209L103.637 43.9369C104.425 44.7247 105.702 44.7247 106.49 43.9369C107.278 43.1491 107.278 41.8718 106.49 41.084L102.855 37.4486H104.036C106.151 37.4486 107.886 35.8211 108.057 33.7502H108.071C108.071 33.6822 108.07 33.6142 108.069 33.5462C108.07 33.5023 108.071 33.4583 108.071 33.414H108.065ZM113.443 25.8495C113.358 24.8139 112.491 24 111.433 24C111.361 24 111.289 24.0038 111.219 24.0112C110.253 24.0154 109.411 24.7206 109.441 25.6944C109.425 25.7995 109.416 25.9074 109.416 26.0173V42.1556C109.416 43.2697 110.319 44.1729 111.433 44.1729C112.547 44.1729 113.45 43.2697 113.45 42.1556V32.9079C113.981 33.2915 114.549 33.6218 115.149 33.893C115.487 34.0456 115.832 34.1785 116.183 34.2913C116.196 34.3047 116.209 34.318 116.222 34.3312L125.693 43.803C126.481 44.5908 127.759 44.5908 128.546 43.803C129.334 43.0152 129.334 41.7379 128.546 40.9501L121.949 34.3531C122.368 34.2285 122.779 34.0755 123.179 33.8948C124.441 33.325 125.567 32.493 126.482 31.4542C127.397 30.4153 128.081 29.1935 128.487 27.8699C128.696 27.1875 128.83 26.4862 128.886 25.7786C128.973 24.6749 127.948 23.8913 126.85 24.031C125.751 24.1708 125.01 25.1964 124.765 26.2762C124.733 26.4164 124.696 26.5555 124.654 26.6934C124.415 27.4727 124.012 28.1921 123.474 28.8038C122.935 29.4154 122.272 29.9053 121.529 30.2408C120.786 30.5763 119.98 30.7497 119.165 30.7496C118.349 30.7494 117.544 30.5756 116.801 30.2397C116.058 29.9039 115.395 29.4137 114.857 28.8018C114.318 28.1898 113.916 27.4702 113.677 26.6908C113.635 26.553 113.598 26.4138 113.566 26.2736C113.534 26.1307 113.493 25.9886 113.443 25.8495ZM32.7589 40.1383H44.1902C45.3043 40.1383 46.2074 41.0415 46.2074 42.1556C46.2074 43.2697 45.3043 44.1729 44.1902 44.1729H32.7589V40.1383ZM81.8462 34.0864V38.121H71.7598V34.0864H81.8462Z" fill="white"/>
<path d="M71.4275 240.858C69.8449 240.282 68.1739 239.992 66.4911 240C61.0575 240 57.2176 242.765 57.1943 246.722C57.1496 249.63 59.9164 251.269 62.0074 252.25C64.1558 253.253 64.874 253.878 64.8634 254.768C64.8527 256.14 63.1464 256.752 61.576 256.752C59.3936 256.752 58.21 256.453 56.3846 255.682L55.7068 255.359L54.9333 259.93C56.2614 260.476 58.6414 260.955 61.0979 261C66.8864 261 70.6604 258.259 70.7029 254.032C70.7475 251.715 69.2664 249.955 66.1107 248.505C64.2067 247.569 63.0146 246.932 63.0146 245.973C63.0146 245.125 64.0325 244.235 66.1575 244.235C67.5677 244.2 68.9697 244.461 70.2736 245.004L70.7943 245.237L71.5571 240.835L71.4275 240.858ZM85.5524 240.379H81.3024C79.9743 240.379 78.9883 240.736 78.4017 242.063L70.2332 260.709H76.0111L77.1756 257.655L84.2243 257.666C84.4006 258.379 84.8979 260.707 84.8979 260.707H90L85.5524 240.379ZM49.37 240.212H54.8716L51.4291 260.551H45.9275L49.37 240.201V240.212ZM35.3811 251.413L35.9442 254.244L41.3332 240.379H47.1664L38.4879 260.675H32.6803L27.9202 243.488C27.8838 243.346 27.8188 243.212 27.7293 243.095C27.6398 242.979 27.5276 242.882 27.3996 242.81C25.6898 241.914 23.876 241.237 22 240.792L22.0659 240.366H30.942C32.1384 240.411 33.1116 240.792 33.4431 242.085L35.3811 251.424V251.413ZM78.7439 253.497L80.9475 247.803C80.9135 247.856 81.4001 246.632 81.6764 245.862L82.0525 247.61L83.3275 253.484H78.7439V253.497Z" fill="#4F4F4F"/>
<path d="M422.173 35.0864C422.173 40.657 417.657 45.1729 412.086 45.1729C406.516 45.1729 402 40.657 402 35.0864C402 29.5159 406.516 25 412.086 25C417.657 25 422.173 29.5159 422.173 35.0864ZM406.03 35.0864C406.03 38.4313 408.742 41.1428 412.086 41.1428C415.431 41.1428 418.143 38.4313 418.143 35.0864C418.143 31.7416 415.431 29.03 412.086 29.03C408.742 29.03 406.03 31.7416 406.03 35.0864Z" fill="white"/>
<path d="M399.173 35.0864C399.173 40.657 394.657 45.1729 389.086 45.1729C383.516 45.1729 379 40.657 379 35.0864C379 29.5159 383.516 25 389.086 25C394.657 25 399.173 29.5159 399.173 35.0864ZM383.03 35.0864C383.03 38.4313 385.742 41.1428 389.086 41.1428C392.431 41.1428 395.143 38.4313 395.143 35.0864C395.143 31.7416 392.431 29.03 389.086 29.03C385.742 29.03 383.03 31.7416 383.03 35.0864Z" fill="white"/>
<path d="M370 45V27C370 25.8954 370.895 25 372 25C373.105 25 374 25.8954 374 27V45H370Z" fill="white"/>
<path fill-rule="evenodd" clip-rule="evenodd" d="M47.8816 116H38C35.2388 116 32.7389 117.119 30.9293 118.929H47.8816V116ZM30.0534 119.929C28.7653 121.612 28 123.717 28 126V131.5H46.386H46.5934L46.7399 131.647L47.7337 132.643H59V129.651L48.1898 119.929H30.0534ZM28 132.5V144.643H32.1316C32.4077 144.643 32.6316 144.867 32.6316 145.143C32.6316 145.419 32.4077 145.643 32.1316 145.643H28V157.5H45.9252L47.0263 156.617V145.643H42.3947C42.1186 145.643 41.8947 145.419 41.8947 145.143C41.8947 144.867 42.1186 144.643 42.3947 144.643H47.0263V133.35L46.1785 132.5H28ZM28 158.5V161.53C28 164.959 29.7252 167.984 32.3547 169.786H48.1981L59 160.626V157.357H47.702L46.4136 158.39L46.2766 158.5H46.1009H28ZM34.2063 170.786C35.3762 171.266 36.6572 171.53 38 171.53H47.8816V170.786H34.2063ZM48.8816 171.53H70.1184V170.517L59.5 161.513L48.8816 170.517V171.53ZM71.1184 171.53H80C81.3428 171.53 82.6238 171.266 83.7937 170.786H71.1184V171.53ZM85.6453 169.786C88.2748 167.984 90 164.959 90 161.53V158.5H72.8991H72.7234L72.5864 158.39L71.1609 157.247L70.9737 157.097V156.857V145.143V133.143V132.936L71.1197 132.79L72.2601 131.647L72.4066 131.5H72.614H90V126C90 123.717 89.2347 121.612 87.9466 119.929H70.8259L66.9811 123.782C66.7861 123.977 66.4695 123.978 66.274 123.783C66.0785 123.587 66.0782 123.271 66.2732 123.075L70.1184 119.222V116H48.8816V119.206L59.5058 128.761L63.4484 125.337C63.6569 125.156 63.9727 125.178 64.1538 125.386C64.3349 125.595 64.3127 125.911 64.1042 126.092L60 129.657V133.143V133.643H59.5H48.0263V145.143V156.357H59.5H60V156.857V160.626L70.8019 169.786H85.6453ZM71.1184 116V118.929H87.0707C85.2611 117.119 82.7612 116 80 116H71.1184ZM90 132.5H72.8215L71.9737 133.35V144.643H76.0351C76.3112 144.643 76.5351 144.867 76.5351 145.143C76.5351 145.419 76.3112 145.643 76.0351 145.643H71.9737V156.617L73.0748 157.5H90V145.643H87.1535C86.8774 145.643 86.6535 145.419 86.6535 145.143C86.6535 144.867 86.8774 144.643 87.1535 144.643H90V132.5Z" fill="white"/>
<path fill-rule="evenodd" clip-rule="evenodd" d="M402.996 171C402.801 149 396.187 127.526 383.956 109.221C371.54 90.6379 353.891 76.1544 333.243 67.6017C312.595 59.049 289.875 56.8112 267.955 61.1713C246.035 65.5314 225.9 76.2937 210.097 92.097C194.294 107.9 183.531 128.035 179.171 149.955C174.811 171.875 177.049 194.595 185.602 215.243C194.154 235.891 208.638 253.54 227.221 265.956C245.803 278.373 267.651 285 290 285V235.989C277.344 235.989 264.973 232.236 254.45 225.205C243.927 218.174 235.725 208.18 230.882 196.488C226.039 184.795 224.771 171.929 227.24 159.516C229.709 147.104 235.804 135.702 244.753 126.753C253.702 117.804 265.104 111.709 277.516 109.24C289.929 106.771 302.795 108.039 314.488 112.882C326.18 117.725 336.174 125.927 343.205 136.45C350.236 146.973 353.989 159.344 353.989 172H354V184.5C354 198.031 364.969 209 378.5 209C392.031 209 403 198.031 403 184.5V172V171H402.996ZM307 236H434.5C448.031 236 459 246.969 459 260.5C459 274.031 448.031 285 434.5 285H307V236Z" fill="url(#paint0_linear_75_446)"/>
</g>
</g>
<defs>
<filter id="filter0_d_75_446" x="0" y="0" width="453" height="298" filterUnits="userSpaceOnUse" color-interpolation-filters="sRGB">
<feFlood flood-opacity="0" result="BackgroundImageFix"/>
<feColorMatrix in="SourceAlpha" type="matrix" values="0 0 0 0 0 0 0 0 0 0 0 0 0 0 0 0 0 0 127 0" result="hardAlpha"/>
<feOffset dy="5"/>
<feGaussianBlur stdDeviation="5"/>
<feComposite in2="hardAlpha" operator="out"/>
<feColorMatrix type="matrix" values="0 0 0 0 0.220833 0 0 0 0 0.212552 0 0 0 0 0.212552 0 0 0 0.21 0"/>
<feBlend mode="normal" in2="BackgroundImageFix" result="effect1_dropShadow_75_446"/>
<feBlend mode="normal" in="SourceGraphic" in2="effect1_dropShadow_75_446" result="shape"/>
</filter>
<linearGradient id="paint0_linear_75_446" x1="197" y1="89.5" x2="411" y2="285" gradientUnits="userSpaceOnUse">
<stop stop-color="#C3F782"/>
<stop offset="0.31082" stop-color="#3EFFD1"/>
<stop offset="0.431631" stop-color="white"/>
<stop offset="0.606902" stop-color="#7EC1FF"/>
<stop offset="1" stop-color="#0066FF"/>
</linearGradient>
<clipPath id="clip0_75_446">
<rect x="10" y="5" width="433" height="278" rx="18" fill="white"/>
</clipPath>
</defs>
</svg>
