<svg width="453" height="298" viewBox="0 0 453 298" fill="none" xmlns="http://www.w3.org/2000/svg">
<g filter="url(#filter0_d_75_410)">
<g clip-path="url(#clip0_75_410)">
<rect x="10" y="5" width="433" height="278" rx="18" fill="#242424"/>
<path fill-rule="evenodd" clip-rule="evenodd" d="M47.8816 112H38C35.2388 112 32.7389 113.119 30.9293 114.929H47.8816V112ZM30.0534 115.929C28.7653 117.612 28 119.717 28 122V127.5H46.386H46.5934L46.7399 127.647L47.7337 128.643H59V125.651L48.1898 115.929H30.0534ZM28 128.5V140.643H32.1316C32.4077 140.643 32.6316 140.867 32.6316 141.143C32.6316 141.419 32.4077 141.643 32.1316 141.643H28V153.5H45.9252L47.0263 152.617V141.643H42.3947C42.1186 141.643 41.8947 141.419 41.8947 141.143C41.8947 140.867 42.1186 140.643 42.3947 140.643H47.0263V129.35L46.1785 128.5H28ZM28 154.5V157.53C28 160.959 29.7252 163.984 32.3547 165.786H48.1981L59 156.626V153.357H47.702L46.4136 154.39L46.2766 154.5H46.1009H28ZM34.2063 166.786C35.3762 167.266 36.6572 167.53 38 167.53H47.8816V166.786H34.2063ZM48.8816 167.53H70.1184V166.517L59.5 157.513L48.8816 166.517V167.53ZM71.1184 167.53H80C81.3428 167.53 82.6238 167.266 83.7937 166.786H71.1184V167.53ZM85.6453 165.786C88.2748 163.984 90 160.959 90 157.53V154.5H72.8991H72.7234L72.5864 154.39L71.1609 153.247L70.9737 153.097V152.857V141.143V129.143V128.936L71.1197 128.79L72.2601 127.647L72.4066 127.5H72.614H90V122C90 119.717 89.2347 117.612 87.9466 115.929H70.8259L66.9811 119.782C66.7861 119.977 66.4695 119.978 66.274 119.783C66.0785 119.587 66.0782 119.271 66.2732 119.075L70.1184 115.222V112H48.8816V115.206L59.5058 124.761L63.4484 121.337C63.6569 121.156 63.9727 121.178 64.1538 121.386C64.3349 121.595 64.3127 121.911 64.1042 122.092L60 125.657V129.143V129.643H59.5H48.0263V141.143V152.357H59.5H60V152.857V156.626L70.8019 165.786H85.6453ZM71.1184 112V114.929H87.0707C85.2611 113.119 82.7612 112 80 112H71.1184ZM90 128.5H72.8215L71.9737 129.35V140.643H76.0351C76.3112 140.643 76.5351 140.867 76.5351 141.143C76.5351 141.419 76.3112 141.643 76.0351 141.643H71.9737V152.617L73.0748 153.5H90V141.643H87.1535C86.8774 141.643 86.6535 141.419 86.6535 141.143C86.6535 140.867 86.8774 140.643 87.1535 140.643H90V128.5Z" fill="white"/>
<path fill-rule="evenodd" clip-rule="evenodd" d="M90.534 33.414H90.5186V42.1556C90.5186 43.2697 91.4218 44.1729 92.5359 44.1729C93.65 44.1729 94.5532 43.2697 94.5532 42.1556L94.5532 33.7502L94.5532 33.414H94.5474C94.5072 32.2483 94.2581 31.0983 93.811 30.019C93.321 28.836 92.6028 27.7612 91.6974 26.8558C90.792 25.9504 89.7172 25.2322 88.5342 24.7422C87.3513 24.2522 86.0834 24 84.803 24C83.5226 24 82.2547 24.2522 81.0717 24.7422C79.8888 25.2322 78.8139 25.9504 77.9085 26.8558C77.0031 27.7612 76.2849 28.836 75.7949 30.019C75.3479 31.0983 75.0988 32.2483 75.0585 33.414H75.0527V33.7502V42.1556C75.0527 43.2697 75.9559 44.1729 77.07 44.1729C78.1842 44.1729 79.0873 43.2697 79.0873 42.1556V33.414H79.0719C79.1094 32.7751 79.2535 32.1461 79.4991 31.5533C79.7876 30.8568 80.2104 30.2239 80.7435 29.6908C81.2766 29.1577 81.9095 28.7348 82.606 28.4463C83.3025 28.1578 84.0491 28.0093 84.803 28.0093C85.5569 28.0093 86.3034 28.1578 86.9999 28.4463C87.6964 28.7348 88.3293 29.1577 88.8624 29.6908C89.3955 30.2239 89.8184 30.8568 90.1069 31.5533C90.3524 32.1461 90.4966 32.7751 90.534 33.414ZM50.1729 34.0864C50.1729 32.0915 49.5813 30.1414 48.473 28.4827C47.3647 26.824 45.7894 25.5312 43.9464 24.7678C42.1033 24.0044 40.0753 23.8046 38.1187 24.1938C36.1621 24.583 34.3649 25.5436 32.9543 26.9543C31.5436 28.3649 30.583 30.1621 30.1938 32.1187C29.8046 34.0753 30.0044 36.1033 30.7678 37.9464C31.5312 39.7894 32.824 41.3647 34.4827 42.473C36.1414 43.5813 38.0915 44.1729 40.0864 44.1729V40.1429C38.8886 40.1429 37.7177 39.7877 36.7217 39.1222C35.7257 38.4567 34.9494 37.5108 34.4911 36.4041C34.0327 35.2975 33.9127 34.0797 34.1464 32.9049C34.3801 31.7301 34.9569 30.6509 35.8039 29.8039C36.6509 28.9569 37.7301 28.3801 38.9049 28.1464C40.0797 27.9127 41.2975 28.0327 42.4041 28.4911C43.5108 28.9495 44.4567 29.7257 45.1222 30.7217C45.7877 31.7177 46.1429 32.8886 46.1429 34.0864L46.1383 34.0864V35.4313C46.1383 36.5454 47.0415 37.4486 48.1556 37.4486C49.2697 37.4486 50.1729 36.5454 50.1729 35.4313L50.1729 34.0864ZM53.535 34.4227L53.535 34.4313V34.7589H53.5408C53.581 35.9246 53.8301 37.0746 54.2772 38.1539C54.7672 39.3369 55.4854 40.4117 56.3908 41.3171C57.2962 42.2225 58.371 42.9407 59.554 43.4307C60.7369 43.9207 62.0048 44.1729 63.2852 44.1729C64.5657 44.1729 65.8335 43.9207 67.0165 43.4307C68.1994 42.9407 69.2743 42.2225 70.1797 41.3171C71.0851 40.4117 71.8033 39.3369 72.2933 38.1539C72.7403 37.0746 72.9894 35.9246 73.0297 34.7589H73.0355L73.0355 34.4227L73.0355 26.0173C73.0355 24.9032 72.1323 24 71.0182 24C69.9041 24 69.0009 24.9032 69.0009 26.0173V34.7589H69.0163C68.9788 35.3978 68.8347 36.0268 68.5892 36.6196C68.3006 37.3161 67.8778 37.949 67.3447 38.4821C66.8116 39.0152 66.1787 39.4381 65.4822 39.7266C64.7857 40.0151 64.0392 40.1636 63.2852 40.1636C62.5313 40.1636 61.7848 40.0151 61.0883 39.7266C60.3918 39.4381 59.7589 39.0152 59.2258 38.4821C58.6927 37.949 58.2698 37.3161 57.9813 36.6196C57.7358 36.0268 57.5917 35.3978 57.5542 34.7589H57.5696V26.0173C57.5696 24.9032 56.6664 24 55.5523 24C54.4382 24 53.535 24.9032 53.535 26.0173L53.535 34.4227ZM116.065 33.414C116.025 32.2483 115.776 31.0983 115.329 30.019C114.839 28.836 114.121 27.7612 113.215 26.8558C112.31 25.9504 111.235 25.2322 110.052 24.7422C108.869 24.2522 107.601 24 106.321 24C105.04 24 103.772 24.2522 102.589 24.7422C101.407 25.2322 100.332 25.9504 99.4263 26.8558C98.5209 27.7612 97.8027 28.836 97.3127 30.019C96.8656 31.0983 96.6165 32.2483 96.5763 33.414H96.5705V33.7502V42.1556C96.5705 43.2697 97.4737 44.1729 98.5878 44.1729C99.7019 44.1729 100.605 43.2697 100.605 42.1556V33.414H100.59C100.627 32.7751 100.771 32.1461 101.017 31.5533C101.305 30.8568 101.728 30.2239 102.261 29.6908C102.794 29.1577 103.427 28.7348 104.124 28.4463C104.82 28.1578 105.567 28.0093 106.321 28.0093C107.075 28.0093 107.821 28.1578 108.518 28.4463C109.214 28.7348 109.847 29.1577 110.38 29.6908C110.913 30.2239 111.336 30.8568 111.625 31.5533C111.87 32.1461 112.014 32.7751 112.052 33.414H105.984C104.87 33.414 103.967 34.3172 103.967 35.4313C103.967 36.0297 104.228 36.5673 104.642 36.9368C104.667 36.9654 104.694 36.9934 104.721 37.0209L111.637 43.9369C112.425 44.7247 113.702 44.7247 114.49 43.9369C115.278 43.1491 115.278 41.8718 114.49 41.084L110.855 37.4486H112.036C114.151 37.4486 115.886 35.8211 116.057 33.7502H116.071C116.071 33.6822 116.07 33.6142 116.069 33.5462C116.07 33.5023 116.071 33.4583 116.071 33.414H116.065ZM121.443 25.8495C121.358 24.8139 120.491 24 119.433 24C119.361 24 119.289 24.0038 119.219 24.0112C118.253 24.0154 117.411 24.7206 117.441 25.6944C117.425 25.7995 117.416 25.9074 117.416 26.0173V42.1556C117.416 43.2697 118.319 44.1729 119.433 44.1729C120.547 44.1729 121.45 43.2697 121.45 42.1556V32.9079C121.981 33.2915 122.549 33.6218 123.149 33.893C123.487 34.0456 123.832 34.1785 124.183 34.2913C124.196 34.3047 124.209 34.318 124.222 34.3312L133.693 43.803C134.481 44.5908 135.759 44.5908 136.546 43.803C137.334 43.0152 137.334 41.7379 136.546 40.9501L129.949 34.3531C130.368 34.2285 130.779 34.0755 131.179 33.8948C132.441 33.325 133.567 32.493 134.482 31.4542C135.397 30.4153 136.081 29.1935 136.487 27.8699C136.696 27.1875 136.83 26.4862 136.886 25.7786C136.973 24.6749 135.948 23.8913 134.85 24.031C133.751 24.1708 133.01 25.1964 132.765 26.2762C132.733 26.4164 132.696 26.5555 132.654 26.6934C132.415 27.4727 132.012 28.1921 131.474 28.8038C130.935 29.4154 130.272 29.9053 129.529 30.2408C128.786 30.5763 127.98 30.7497 127.165 30.7496C126.349 30.7494 125.544 30.5756 124.801 30.2397C124.058 29.9039 123.395 29.4137 122.857 28.8018C122.318 28.1898 121.916 27.4702 121.677 26.6908C121.635 26.553 121.598 26.4138 121.566 26.2736C121.534 26.1307 121.493 25.9886 121.443 25.8495ZM40.7589 40.1383H52.1902C53.3043 40.1383 54.2074 41.0415 54.2074 42.1556C54.2074 43.2697 53.3043 44.1729 52.1902 44.1729H40.7589V40.1383ZM89.8462 34.0864V38.121H79.7598V34.0864H89.8462Z" fill="white"/>
<path d="M79.4275 240.858C77.8449 240.282 76.1739 239.992 74.4911 240C69.0575 240 65.2176 242.765 65.1943 246.722C65.1496 249.63 67.9164 251.269 70.0074 252.25C72.1558 253.253 72.874 253.878 72.8634 254.768C72.8527 256.14 71.1464 256.752 69.576 256.752C67.3936 256.752 66.21 256.453 64.3846 255.682L63.7068 255.359L62.9333 259.93C64.2614 260.476 66.6414 260.955 69.0979 261C74.8864 261 78.6604 258.259 78.7029 254.032C78.7475 251.715 77.2664 249.955 74.1107 248.505C72.2067 247.569 71.0146 246.932 71.0146 245.973C71.0146 245.125 72.0325 244.235 74.1575 244.235C75.5677 244.2 76.9697 244.461 78.2736 245.004L78.7943 245.237L79.5571 240.835L79.4275 240.858ZM93.5524 240.379H89.3024C87.9743 240.379 86.9883 240.736 86.4017 242.063L78.2332 260.709H84.0111L85.1756 257.655L92.2243 257.666C92.4006 258.379 92.8979 260.707 92.8979 260.707H98L93.5524 240.379ZM57.37 240.212H62.8716L59.4291 260.551H53.9275L57.37 240.201V240.212ZM43.3811 251.413L43.9442 254.244L49.3332 240.379H55.1664L46.4879 260.675H40.6803L35.9202 243.488C35.8838 243.346 35.8188 243.212 35.7293 243.095C35.6398 242.979 35.5276 242.882 35.3996 242.81C33.6898 241.914 31.876 241.237 30 240.792L30.0659 240.366H38.942C40.1384 240.411 41.1116 240.792 41.4431 242.085L43.3811 251.424V251.413ZM86.7439 253.497L88.9475 247.803C88.9135 247.856 89.4001 246.632 89.6764 245.862L90.0525 247.61L91.3275 253.484H86.7439V253.497Z" fill="#4F4F4F"/>
<path fill-rule="evenodd" clip-rule="evenodd" d="M423.996 169C423.801 147 417.188 125.526 404.956 107.221C392.54 88.6379 374.891 74.1544 354.243 65.6017C333.595 57.049 310.875 54.8112 288.955 59.1713C267.035 63.5314 246.9 74.2937 231.097 90.097C215.294 105.9 204.531 126.035 200.171 147.955C195.811 169.875 198.049 192.595 206.602 213.243C215.154 233.891 229.638 251.54 248.221 263.956C266.803 276.373 288.651 283 311 283V233.989C298.344 233.989 285.973 230.236 275.45 223.205C264.927 216.174 256.725 206.18 251.882 194.488C247.039 182.795 245.771 169.929 248.24 157.516C250.709 145.104 256.804 133.702 265.753 124.753C274.702 115.804 286.104 109.709 298.516 107.24C310.929 104.771 323.795 106.039 335.488 110.882C347.18 115.725 357.174 123.927 364.205 134.45C371.236 144.973 374.989 157.344 374.989 170H375V182.5C375 196.031 385.969 207 399.5 207C413.031 207 424 196.031 424 182.5V170V169H423.996ZM328 234H455.5C469.031 234 480 244.969 480 258.5C480 272.031 469.031 283 455.5 283H328V234Z" fill="url(#paint0_linear_75_410)"/>
<path d="M389.75 43.5004C391.031 43.5004 392.299 43.2483 393.482 42.7583C394.664 42.2683 395.739 41.5501 396.645 40.6447C397.55 39.7393 398.268 38.6644 398.758 37.4815C399.248 36.2985 399.5 35.0306 399.5 33.7502C399.5 32.4698 399.248 31.2019 398.758 30.019C398.268 28.836 397.55 27.7612 396.645 26.8558C395.739 25.9504 394.664 25.2322 393.482 24.7422C392.299 24.2522 391.031 24 389.75 24V28.0093C390.504 28.0093 391.251 28.1578 391.947 28.4463C392.644 28.7348 393.277 29.1577 393.81 29.6908C394.343 30.2239 394.766 30.8568 395.054 31.5533C395.343 32.2498 395.491 32.9963 395.491 33.7502C395.491 34.5041 395.343 35.2507 395.054 35.9472C394.766 36.6437 394.343 37.2766 393.81 37.8097C393.277 38.3428 392.644 38.7656 391.947 39.0541C391.251 39.3426 390.504 39.4911 389.75 39.4911V43.5004Z" fill="white"/>
<path d="M400 26C400 27.1046 399.105 28 398 28H387C385.895 28 385 27.1046 385 26C385 24.8954 385.895 24 387 24H398C399.105 24 400 24.8954 400 26Z" fill="white"/>
<path d="M390 43.5H387C385.896 43.5 385 42.6046 385 41.5C385 40.3954 385.896 39.5 387 39.5H390V43.5Z" fill="white"/>
<path d="M422.173 34.0864C422.173 39.657 417.658 44.1729 412.087 44.1729C406.516 44.1729 402 39.657 402 34.0864C402 28.5159 406.516 24 412.087 24C417.658 24 422.173 28.5159 422.173 34.0864ZM406.031 34.0864C406.031 37.4313 408.742 40.1428 412.087 40.1428C415.432 40.1428 418.143 37.4313 418.143 34.0864C418.143 30.7416 415.432 28.03 412.087 28.03C408.742 28.03 406.031 30.7416 406.031 34.0864Z" fill="white"/>
</g>
</g>
<defs>
<filter id="filter0_d_75_410" x="0" y="0" width="453" height="298" filterUnits="userSpaceOnUse" color-interpolation-filters="sRGB">
<feFlood flood-opacity="0" result="BackgroundImageFix"/>
<feColorMatrix in="SourceAlpha" type="matrix" values="0 0 0 0 0 0 0 0 0 0 0 0 0 0 0 0 0 0 127 0" result="hardAlpha"/>
<feOffset dy="5"/>
<feGaussianBlur stdDeviation="5"/>
<feComposite in2="hardAlpha" operator="out"/>
<feColorMatrix type="matrix" values="0 0 0 0 0.220833 0 0 0 0 0.212552 0 0 0 0 0.212552 0 0 0 0.21 0"/>
<feBlend mode="normal" in2="BackgroundImageFix" result="effect1_dropShadow_75_410"/>
<feBlend mode="normal" in="SourceGraphic" in2="effect1_dropShadow_75_410" result="shape"/>
</filter>
<linearGradient id="paint0_linear_75_410" x1="218" y1="87.5" x2="432" y2="283" gradientUnits="userSpaceOnUse">
<stop stop-color="#E98F8F"/>
<stop offset="0.31082" stop-color="#FFC147"/>
<stop offset="0.447917" stop-color="white"/>
<stop offset="0.609375" stop-color="#FF7E7E"/>
<stop offset="1" stop-color="#9610FF"/>
</linearGradient>
<clipPath id="clip0_75_410">
<rect x="10" y="5" width="433" height="278" rx="18" fill="white"/>
</clipPath>
</defs>
</svg>
