<svg width="428" height="269" viewBox="0 0 428 269" fill="none" xmlns="http://www.w3.org/2000/svg">
<rect width="428" height="269" rx="20" fill="#F5F5F5"/>
<path d="M249.605 131.653C249.548 121.935 253.969 114.611 262.896 109.211C257.903 102.086 250.349 98.1678 240.392 97.4126C230.964 96.6717 220.649 102.884 216.873 102.884C212.881 102.884 203.754 97.6691 196.572 97.6691C181.751 97.8971 166 109.439 166 132.921C166 139.861 167.273 147.028 169.82 154.409C173.225 164.127 185.499 187.937 198.303 187.552C204.999 187.395 209.734 182.821 218.446 182.821C226.901 182.821 231.279 187.552 238.747 187.552C251.665 187.367 262.767 165.723 266 155.976C248.675 147.84 249.605 132.152 249.605 131.653ZM234.569 88.1935C241.823 79.6155 241.165 71.8071 240.95 69C234.541 69.3705 227.13 73.346 222.91 78.2334C218.26 83.477 215.528 89.9604 216.114 97.2701C223.039 97.7973 229.362 94.2493 234.569 88.1935Z" fill="#8BD5DA"/>
</svg>
