<svg width="428" height="269" viewBox="0 0 428 269" fill="none" xmlns="http://www.w3.org/2000/svg">
<rect width="428" height="269" rx="20" fill="#F5F5F5"/>
<path d="M262.029 124.624C262.653 127.971 262.994 131.471 262.994 135.123C262.994 163.688 243.875 184 215 184C208.433 184.002 201.931 182.71 195.863 180.198C189.796 177.686 184.284 174.003 179.64 169.36C174.997 164.716 171.314 159.204 168.802 153.137C166.29 147.069 164.998 140.567 165 134C164.998 127.433 166.29 120.931 168.802 114.863C171.314 108.796 174.997 103.284 179.64 98.6402C184.284 93.9969 189.796 90.314 195.863 87.8019C201.931 85.2899 208.433 83.998 215 84C228.501 84 239.782 88.9675 248.437 97.0333L234.342 111.128V111.093C229.095 106.095 222.436 103.53 215 103.53C198.503 103.53 185.093 117.467 185.093 133.97C185.093 150.467 198.503 164.435 215 164.435C229.968 164.435 240.157 155.876 242.25 144.123H215V124.624H262.034H262.029Z" fill="#FFAE34"/>
</svg>
