<svg width="428" height="269" viewBox="0 0 428 269" fill="none" xmlns="http://www.w3.org/2000/svg">
<rect width="428" height="269" rx="20" fill="#F5F5F5"/>
<path d="M186 84.0188L205.815 140.113V140.082L207.379 144.491C216.096 169.119 220.774 182.321 220.789 182.337L223.724 182.515C228.549 182.712 234.528 183.265 239.059 183.799C240.101 183.931 240.999 183.962 241.064 183.931L219.604 123.133L209.485 94.5825C208.296 91.1741 207.09 87.7716 205.868 84.375L205.737 84H186.019L186 84.0188ZM221.49 84.0531L221.44 106.159L221.409 128.28L219.585 123.136L217.238 172.345C219.554 178.874 220.789 182.355 220.808 182.371C220.827 182.387 222.144 182.483 223.724 182.549C228.565 182.762 234.528 183.299 239.074 183.852C240.116 183.965 241.03 184.015 241.08 183.965C241.146 183.934 241.161 161.387 241.161 133.928L241.13 84.0531H221.49ZM186 84.0188V133.975C186 161.453 186.031 183.965 186.066 183.996C186.1 184.027 187.793 183.865 189.845 183.637C191.937 183.375 194.034 183.152 196.134 182.968C198.303 182.755 204.77 182.333 205.521 182.333C205.734 182.333 205.749 181.211 205.78 161.172L205.812 139.994L207.392 144.423L207.946 145.985L210.324 96.8109L209.526 94.5325L205.727 84.0156L186 84.0188Z" fill="#A21212"/>
</svg>
