<svg width="428" height="269" viewBox="0 0 428 269" fill="none" xmlns="http://www.w3.org/2000/svg">
<rect width="428" height="269" rx="20" fill="#F5F5F5"/>
<path d="M277.477 160.533C274.941 163.731 268.735 166.007 268.735 166.007L222.587 182.575V170.355L256.55 158.265C260.407 156.888 260.998 154.929 257.863 153.908C254.735 152.88 249.072 153.18 245.224 154.556L222.587 162.525V149.843L223.892 149.406C223.892 149.406 230.43 147.09 239.626 146.07C248.821 145.058 260.083 146.207 268.922 149.552C278.887 152.71 280.005 157.342 277.477 160.533ZM226.979 139.737V108.48C226.979 104.811 226.306 101.435 222.863 100.479C220.222 99.6288 218.585 102.082 218.585 105.743V184L197.472 177.303V84C206.449 85.6682 219.525 89.6037 226.557 91.9764C244.438 98.1064 250.498 105.743 250.498 122.951C250.498 139.721 240.144 146.078 226.979 139.729V139.737ZM158.729 169.092C148.505 166.193 146.803 160.201 151.462 156.751C155.772 153.56 163.096 151.163 163.096 151.163L193.372 140.393V152.661L171.579 160.46C167.738 161.836 167.147 163.788 170.274 164.816C173.401 165.837 179.065 165.545 182.913 164.168L193.364 160.371V171.351L191.282 171.699C180.379 173.464 169.21 172.566 158.729 169.084V169.092Z" fill="#5584FD"/>
</svg>
