<svg width="428" height="269" viewBox="0 0 428 269" fill="none" xmlns="http://www.w3.org/2000/svg">
<rect width="428" height="269" rx="20" fill="#F5F5F5"/>
<path d="M282.697 100.621C281.885 97.5962 280.293 94.8377 278.08 92.6216C275.866 90.4055 273.11 88.8096 270.086 87.9936C258.955 85 214.338 85 214.338 85C214.338 85 169.72 85 158.589 87.9777C155.564 88.7911 152.806 90.3861 150.592 92.6025C148.379 94.819 146.787 97.5789 145.978 100.605C143 111.752 143 135 143 135C143 135 143 158.248 145.978 169.379C147.618 175.525 152.459 180.366 158.589 182.006C169.72 185 214.338 185 214.338 185C214.338 185 258.955 185 270.086 182.006C276.232 180.366 281.057 175.525 282.697 169.379C285.675 158.248 285.675 135 285.675 135C285.675 135 285.675 111.752 282.697 100.621ZM200.166 156.338V113.662L237.108 134.841L200.166 156.338Z" fill="#E26060"/>
</svg>
