<svg width="38" height="35" viewBox="0 0 38 35" fill="none" xmlns="http://www.w3.org/2000/svg">
<path d="M18.2121 34H3C1.89543 34 1 33.1046 1 32V3C1 1.89543 1.89543 1 3 1H31C32.1046 1 33 1.89543 33 3V21" stroke="#434C6D" stroke-width="2" stroke-linecap="round" stroke-linejoin="round"/>
<path d="M9 1V34" stroke="#434C6D" stroke-width="2" stroke-linecap="round"/>
<path d="M13 9H27.1184" stroke="#434C6D" stroke-width="2" stroke-linecap="round" stroke-linejoin="round"/>
<path d="M13 15.3291H20.7895" stroke="#434C6D" stroke-width="2" stroke-linecap="round" stroke-linejoin="round"/>
<path d="M21 31.25V25C21 24.4477 21.4477 24 22 24H36C36.5523 24 37 24.4477 37 25V31.25C37 31.8023 36.5523 32.25 36 32.25H28.0896C27.8449 32.25 27.6086 32.3398 27.4256 32.5023L26.0316 33.7401C25.4817 34.2285 24.6129 33.8381 24.6129 33.1026C24.6129 32.6317 24.2312 32.25 23.7603 32.25H22C21.4477 32.25 21 31.8023 21 31.25Z" stroke="#434C6D" stroke-width="2" stroke-linecap="round"/>
</svg>
