<svg width="39" height="37" viewBox="0 0 39 37" fill="none" xmlns="http://www.w3.org/2000/svg">
<path d="M18.2121 34H3C1.89543 34 1 33.1046 1 32V3C1 1.89543 1.89543 1 3 1H31C32.1046 1 33 1.89543 33 3V8" stroke="white" stroke-width="2" stroke-linecap="round" stroke-linejoin="round"/>
<path d="M26.3025 17.5891L29.9538 11.2649C29.9538 11.2649 29.9538 11.2649 29.9538 11.2649C29.9538 11.2648 30.6841 10 33.003 11.3388C35.3219 12.6776 34.5916 13.9425 34.5916 13.9425C34.5916 13.9425 34.5916 13.9425 34.5916 13.9425L30.9403 20.2667M26.3025 17.5891L21.2166 26.3981C21.1202 26.5651 21.0741 26.7563 21.0839 26.9488L21.2404 30.033C21.2772 30.7574 22.0489 31.2029 22.6946 30.8726L25.4438 29.466C25.6154 29.3782 25.758 29.2427 25.8544 29.0758L30.9403 20.2667M26.3025 17.5891C27.7217 17.5652 30.4622 19.1475 30.9403 20.2667" stroke="white" stroke-width="2" stroke-linecap="round"/>
<path d="M35.4868 15L36.0208 15.3083C36.4991 15.5844 36.663 16.196 36.3868 16.6743L32.4 23.5797" stroke="white" stroke-width="2" stroke-linecap="round"/>
<path d="M8 9H22.1184" stroke="white" stroke-width="2" stroke-linecap="round" stroke-linejoin="round"/>
<path d="M8 15.3291H15.7895" stroke="white" stroke-width="2" stroke-linecap="round" stroke-linejoin="round"/>
<path d="M22 34.0001L29.4116 34.0003C29.7747 34.0003 30.1081 33.7995 30.297 33.4893C32.6845 29.5667 34.8433 30.4343 33.4408 34.2392C31.9803 38.2013 37.5789 34.2392 37.5789 34.2392" stroke="white" stroke-width="2" stroke-linecap="round"/>
</svg>
