<svg width="25" height="25" viewBox="0 0 25 25" fill="none" xmlns="http://www.w3.org/2000/svg">
<path d="M12.5 0C5.6 0 0 5.6 0 12.5C0 19.4 5.6 25 12.5 25C19.4 25 25 19.4 25 12.5C25 5.6 19.4 0 12.5 0ZM18.3 8.5C18.1125 10.475 17.3 15.275 16.8875 17.4875C16.7125 18.425 16.3625 18.7375 16.0375 18.775C15.3125 18.8375 14.7625 18.3 14.0625 17.8375C12.9625 17.1125 12.3375 16.6625 11.275 15.9625C10.0375 15.15 10.8375 14.7 11.55 13.975C11.7375 13.7875 14.9375 10.875 15 10.6125C15.0087 10.5727 15.0075 10.5315 14.9966 10.4923C14.9857 10.453 14.9654 10.4171 14.9375 10.3875C14.8625 10.325 14.7625 10.35 14.675 10.3625C14.5625 10.3875 12.8125 11.55 9.4 13.85C8.9 14.1875 8.45 14.3625 8.05 14.35C7.6 14.3375 6.75 14.1 6.1125 13.8875C5.325 13.6375 4.7125 13.5 4.7625 13.0625C4.7875 12.8375 5.1 12.6125 5.6875 12.375C9.3375 10.7875 11.7625 9.7375 12.975 9.2375C16.45 7.7875 17.1625 7.5375 17.6375 7.5375C17.7375 7.5375 17.975 7.5625 18.125 7.6875C18.25 7.7875 18.2875 7.925 18.3 8.025C18.2875 8.1 18.3125 8.325 18.3 8.5Z" fill="#434C6D"/>
</svg>
