<svg width="74" height="52" viewBox="0 0 74 52" fill="none" xmlns="http://www.w3.org/2000/svg">
<path d="M24.3611 50H4C2.89543 50 2 49.1046 2 48V4C2 2.89543 2.89543 2 4 2H64.1667C65.2712 2 66.1667 2.89543 66.1667 4V20.1333" stroke="white" stroke-width="3" stroke-linecap="round" stroke-linejoin="round"/>
<path d="M14.6387 13H42.8331" stroke="white" stroke-width="3" stroke-linecap="round" stroke-linejoin="round"/>
<path d="M15 22H30.5556" stroke="white" stroke-width="3" stroke-linecap="round" stroke-linejoin="round"/>
<path d="M55.2765 36.2801C55.2765 36.2801 67.1377 47.979 68.7609 47.9999C70.2691 48.0193 72.1319 45.7238 71.9924 44.1015C71.8382 42.3083 58.2977 32.6178 58.2977 32.6178M60.6779 23.1962L56.824 19.9227C55.2884 18.6183 53.0194 18.7007 51.6118 20.1455C47.6514 24.2105 44.9175 27.4884 41.5887 32.2332C40.4294 33.8858 40.7445 36.159 42.2784 37.4618L46.1239 40.7283C47.6555 42.0292 49.9178 41.951 51.3268 40.5151C55.3514 36.4133 58.0934 33.1347 61.3797 28.4019C62.5255 26.7518 62.2042 24.4927 60.6779 23.1962Z" stroke="white" stroke-width="3" stroke-linecap="round"/>
<path d="M31.1665 50H33.1109M51.5832 50H50.1248M33.1109 50L37.212 46.7191C37.3893 46.5773 37.6097 46.5 37.8367 46.5H45.3991C45.6261 46.5 45.8464 46.5773 46.0238 46.7191L50.1248 50M33.1109 50H50.1248" stroke="white" stroke-width="3" stroke-linecap="round"/>
<path d="M8.80566 32V42C8.80566 42.5523 9.25338 43 9.80566 43H19.5001" stroke="white" stroke-width="3" stroke-linecap="round"/>
</svg>
