<svg width="73" height="52" viewBox="0 0 73 52" fill="none" xmlns="http://www.w3.org/2000/svg">
<circle cx="8.5" cy="8.5" r="7" transform="matrix(-1 0 0 1 26 12)" stroke="white" stroke-width="3"/>
<path d="M57 9H39.5" stroke="white" stroke-width="3" stroke-linecap="round"/>
<path d="M27.5 39.5714C27.5 35.666 24.334 32.5 20.4286 32.5H14.5714C10.666 32.5 7.5 35.666 7.5 39.5714C7.5 40.6365 8.36345 41.5 9.42857 41.5H25.5714C26.6365 41.5 27.5 40.6365 27.5 39.5714Z" stroke="white" stroke-width="3"/>
<path d="M57.4242 50H4C2.89543 50 2 49.1046 2 48V4C2 2.89543 2.89543 2 4 2H62C63.1046 2 64 2.89543 64 4V18.5" stroke="white" stroke-width="3" stroke-linecap="round" stroke-linejoin="round"/>
<path d="M55.5735 32.3441C55.5735 32.3441 70.6967 43.4337 70.9284 45.2643C71.1437 46.9651 68.8173 49.6785 66.9864 49.9492C64.9625 50.2485 51.6314 37.029 51.6314 37.029" stroke="white" stroke-width="3" stroke-linecap="round"/>
<circle cx="14" cy="14" r="12.5" transform="matrix(-1 0 0 1 58.0562 13)" stroke="white" stroke-width="3"/>
</svg>
