<svg width="73" height="52" viewBox="0 0 73 52" fill="none" xmlns="http://www.w3.org/2000/svg">
<path d="M2 6.83636H12.9601C13.5124 6.83636 13.9601 7.28408 13.9601 7.83636V10.9818M2 40H12.9601C13.5124 40 13.9601 39.5523 13.9601 39V35.1636M13.9601 10.9818C13.9601 10.4291 28.606 2 31.3943 2C34.0849 2 45.8675 16.7954 46.691 17.8336C46.7237 17.8748 46.7502 17.9152 46.7756 17.9613C50.1764 24.119 46.0499 28.8915 39.8428 25.5346C39.7906 25.5064 39.7396 25.4721 39.6935 25.4347L32.87 19.9036C32.4404 19.5554 31.8097 19.622 31.4623 20.0522L23.9815 29.3166C23.8161 29.5215 23.7381 29.7833 23.7646 30.0453L24.2937 35.2881C24.3585 35.9301 23.8075 36.4645 23.1678 36.38L13.9601 35.1636M13.9601 10.9818V35.1636" stroke="white" stroke-width="3" stroke-linecap="round"/>
<path d="M60.4375 38.8814C60.4375 38.8814 50.125 50 45.3125 50C40.6161 50 28.1006 38.3971 24.268 31.077C24.0961 30.7488 24.1381 30.3562 24.3589 30.0587L31.6618 20.2164C31.9879 19.777 32.6066 19.6812 33.0503 20.0015L41.8111 26.3267C41.8536 26.3574 41.8999 26.3856 41.947 26.4088C45.9724 28.3878 48.6666 25.0584 48.0902 20.9943C48.0733 20.8752 48.0317 20.7602 47.9715 20.656L43.7391 13.3221C43.4673 12.8511 43.6217 12.2492 44.0866 11.9672L46.2358 10.6638C46.5184 10.4924 46.8675 10.4717 47.1684 10.6086L60.4375 16.6441M60.4375 38.8814V16.6441M60.4375 38.8814V42.7458C60.4375 43.298 60.8852 43.7458 61.4375 43.7458H71M60.4375 16.6441C60.4375 16.1595 60.4375 12.4722 60.4375 9.99956C60.4375 9.44728 60.8852 9 61.4375 9H71" stroke="white" stroke-width="3" stroke-linecap="round"/>
<path d="M1 17V31" stroke="white" stroke-width="3" stroke-linecap="round"/>
<path d="M71 19V33" stroke="white" stroke-width="3" stroke-linecap="round"/>
</svg>
