<svg width="74" height="60" viewBox="0 0 74 60" fill="none" xmlns="http://www.w3.org/2000/svg">
<path d="M37.4714 18.5598L37.6838 18.6924L37.9277 18.7488L43.0633 19.9367L44.2512 25.0723L44.3076 25.3162L44.4402 25.5286L47.2317 30L44.4402 34.4714L44.3076 34.6838L44.2512 34.9277L43.0633 40.0633L37.9277 41.2512L37.6838 41.3076L37.4714 41.4402L33 44.2317L28.5286 41.4402L28.3162 41.3076L28.0723 41.2512L22.9367 40.0633L21.7488 34.9277L21.6924 34.6838L21.5598 34.4714L18.7683 30L21.5598 25.5286L21.6924 25.3162L21.7488 25.0723L22.9367 19.9367L28.0723 18.7488L28.3162 18.6924L28.5286 18.5598L33 15.7683L37.4714 18.5598Z" stroke="white" stroke-width="3"/>
<path d="M25 41V56.5643C25 57.2605 25.6936 57.7437 26.3467 57.5023L32.6534 55.1716C32.8771 55.0889 33.1229 55.0889 33.3466 55.1716L39.6533 57.5023C40.3064 57.7437 41 57.2605 41 56.5643V41" stroke="white" stroke-width="3" stroke-linecap="round"/>
<path fill-rule="evenodd" clip-rule="evenodd" d="M3 0.5C1.61929 0.5 0.5 1.61929 0.5 3V48C0.5 49.3807 1.61928 50.5 3 50.5H24V47.5H3.5V3.5H70.5V47.5H41V50.5H71C72.3807 50.5 73.5 49.3807 73.5 48V3C73.5 1.61929 72.3807 0.5 71 0.5H3Z" fill="white"/>
<path d="M58 8H66C66.5523 8 67 8.44772 67 9V16" stroke="white" stroke-width="3" stroke-linecap="round"/>
</svg>
